<svg id="svg" version="1.1" xmlns="http://www.w3.org/2000/svg" xmlns:xlink="http://www.w3.org/1999/xlink" width="400" height="241.11111111111111" viewBox="0, 0, 400,241.11111111111111"><g id="svgg"><path id="path0" d="M376.963 0.263 C 374.032 0.386,372.108 0.563,372.058 0.715 C 372.012 0.853,371.386 0.965,370.667 0.965 C 369.857 0.965,369.361 1.069,369.361 1.238 C 369.361 1.418,368.993 1.469,368.275 1.388 C 367.678 1.321,367.189 1.350,367.189 1.453 C 367.189 1.556,366.430 1.716,365.501 1.809 C 364.573 1.903,363.874 2.076,363.948 2.196 C 364.021 2.315,363.695 2.413,363.223 2.413 C 362.751 2.413,362.364 2.509,362.364 2.626 C 362.364 2.743,361.740 2.917,360.977 3.012 C 360.214 3.107,359.527 3.286,359.451 3.408 C 359.375 3.531,358.750 3.698,358.064 3.779 C 357.377 3.861,356.815 4.014,356.815 4.120 C 356.815 4.226,356.327 4.386,355.730 4.476 C 355.133 4.565,354.644 4.723,354.644 4.825 C 354.644 4.928,354.156 5.085,353.559 5.174 C 352.961 5.264,352.473 5.427,352.473 5.536 C 352.473 5.646,351.984 5.809,351.387 5.898 C 350.790 5.988,350.302 6.149,350.302 6.257 C 350.302 6.364,349.867 6.522,349.337 6.607 C 348.806 6.691,348.372 6.868,348.372 6.999 C 348.372 7.130,348.121 7.238,347.815 7.238 C 347.508 7.238,347.047 7.397,346.789 7.592 C 346.532 7.787,346.131 7.950,345.899 7.954 C 345.666 7.958,345.476 8.060,345.476 8.181 C 345.476 8.302,345.042 8.475,344.511 8.565 C 343.981 8.654,343.546 8.822,343.546 8.937 C 343.546 9.052,343.139 9.221,342.642 9.312 C 342.144 9.404,341.683 9.544,341.616 9.625 C 341.401 9.885,339.826 10.594,339.083 10.765 C 338.685 10.856,338.305 10.995,338.239 11.075 C 338.120 11.217,337.391 11.571,335.407 12.453 C 334.844 12.703,334.383 12.976,334.382 13.061 C 334.380 13.146,333.996 13.287,333.528 13.375 C 333.060 13.463,332.734 13.628,332.805 13.742 C 332.876 13.857,332.499 14.023,331.967 14.113 C 331.436 14.203,331.001 14.367,331.001 14.477 C 331.001 14.588,330.676 14.750,330.277 14.837 C 329.879 14.925,329.554 15.084,329.554 15.191 C 329.554 15.299,329.171 15.458,328.703 15.546 C 328.234 15.634,327.908 15.797,327.977 15.909 C 328.046 16.021,327.805 16.185,327.441 16.272 C 326.432 16.516,325.452 16.981,325.452 17.216 C 325.452 17.332,325.235 17.370,324.970 17.300 C 324.705 17.231,324.427 17.273,324.353 17.393 C 324.278 17.513,324.007 17.612,323.749 17.612 C 323.492 17.612,323.281 17.716,323.281 17.845 C 323.281 17.973,322.738 18.149,322.075 18.237 C 321.411 18.325,320.869 18.485,320.869 18.593 C 320.869 18.700,320.380 18.862,319.783 18.951 C 319.186 19.041,318.697 19.200,318.697 19.305 C 318.697 19.410,318.155 19.571,317.491 19.662 C 316.828 19.753,316.231 19.916,316.165 20.023 C 316.099 20.130,315.393 20.294,314.596 20.386 C 313.800 20.478,313.148 20.641,313.148 20.748 C 313.148 20.855,312.497 21.017,311.701 21.110 C 310.905 21.202,310.253 21.363,310.253 21.468 C 310.253 21.646,307.709 22.093,307.280 21.990 C 307.171 21.964,307.141 22.038,307.213 22.156 C 307.286 22.273,306.674 22.439,305.854 22.525 C 305.035 22.611,304.256 22.789,304.124 22.921 C 303.992 23.053,303.472 23.160,302.967 23.160 C 302.463 23.160,302.051 23.256,302.051 23.373 C 302.051 23.490,301.236 23.663,300.241 23.756 C 299.246 23.849,298.432 24.012,298.432 24.118 C 298.432 24.223,297.509 24.387,296.381 24.480 C 295.253 24.574,294.331 24.737,294.331 24.842 C 294.331 24.947,293.299 25.110,292.039 25.205 C 290.778 25.299,289.747 25.464,289.747 25.570 C 289.747 25.676,288.770 25.840,287.575 25.935 C 286.381 26.029,285.404 26.195,285.404 26.303 C 285.404 26.411,284.318 26.576,282.992 26.670 C 281.665 26.764,280.579 26.922,280.579 27.021 C 280.579 27.119,279.386 27.277,277.927 27.372 C 276.468 27.466,275.213 27.643,275.138 27.764 C 275.063 27.886,274.366 27.986,273.588 27.986 C 272.811 27.986,272.139 28.087,272.095 28.210 C 272.051 28.334,270.277 28.512,268.154 28.606 C 265.778 28.712,264.228 28.881,264.122 29.045 C 263.877 29.426,237.448 29.424,237.205 29.043 C 237.098 28.877,235.563 28.708,233.172 28.600 C 231.049 28.504,229.276 28.326,229.232 28.205 C 229.188 28.084,228.401 27.986,227.483 27.986 C 226.531 27.986,225.814 27.882,225.814 27.744 C 225.814 27.612,225.733 27.523,225.633 27.548 C 225.140 27.669,220.044 27.184,220.142 27.025 C 220.205 26.924,219.172 26.764,217.848 26.670 C 216.524 26.576,215.440 26.412,215.440 26.306 C 215.440 26.200,214.409 26.036,213.148 25.941 C 211.888 25.847,210.856 25.684,210.856 25.579 C 210.856 25.474,209.934 25.312,208.806 25.218 C 207.678 25.124,206.755 24.958,206.755 24.848 C 206.755 24.739,205.941 24.573,204.946 24.480 C 203.951 24.386,203.136 24.227,203.136 24.125 C 203.136 24.024,202.322 23.865,201.327 23.771 C 200.332 23.678,199.517 23.514,199.517 23.407 C 199.517 23.210,199.319 23.164,196.140 22.623 C 195.145 22.454,194.222 22.245,194.089 22.159 C 193.957 22.072,193.305 21.923,192.642 21.827 C 191.978 21.731,191.327 21.569,191.194 21.468 C 191.062 21.367,190.274 21.207,189.445 21.113 C 188.616 21.019,187.937 20.855,187.937 20.748 C 187.937 20.641,187.286 20.478,186.490 20.386 C 185.694 20.294,185.042 20.131,185.042 20.024 C 185.042 19.917,184.391 19.755,183.595 19.662 C 182.799 19.570,182.147 19.409,182.147 19.305 C 182.147 19.201,181.441 19.040,180.579 18.947 C 179.717 18.855,179.011 18.690,179.011 18.581 C 179.011 18.472,178.359 18.307,177.563 18.215 C 176.767 18.122,176.116 17.949,176.116 17.829 C 176.116 17.709,175.797 17.612,175.406 17.612 C 175.016 17.612,174.639 17.518,174.568 17.403 C 174.497 17.288,174.165 17.246,173.830 17.310 C 173.473 17.378,173.221 17.315,173.221 17.157 C 173.221 17.009,172.895 16.888,172.497 16.888 C 172.099 16.888,171.773 16.792,171.773 16.675 C 171.773 16.557,171.068 16.386,170.205 16.294 C 169.343 16.201,168.637 16.036,168.637 15.927 C 168.637 15.818,167.986 15.653,167.189 15.561 C 166.393 15.469,165.742 15.308,165.742 15.203 C 165.742 15.099,165.145 14.939,164.415 14.848 C 163.685 14.756,163.088 14.592,163.088 14.482 C 163.088 14.371,162.437 14.206,161.641 14.113 C 160.844 14.021,160.193 13.858,160.193 13.752 C 160.193 13.645,159.542 13.482,158.745 13.390 C 157.949 13.297,157.298 13.124,157.298 13.004 C 157.298 12.884,156.979 12.786,156.588 12.786 C 156.198 12.786,155.818 12.689,155.744 12.569 C 155.671 12.449,154.958 12.276,154.162 12.183 C 153.366 12.091,152.714 11.928,152.714 11.821 C 152.714 11.715,152.063 11.552,151.267 11.460 C 150.470 11.367,149.819 11.204,149.819 11.098 C 149.819 10.991,149.168 10.828,148.372 10.736 C 147.575 10.643,146.924 10.479,146.924 10.369 C 146.924 10.260,146.218 10.096,145.356 10.003 C 144.493 9.911,143.788 9.750,143.788 9.646 C 143.788 9.542,143.136 9.381,142.340 9.288 C 141.544 9.196,140.893 9.036,140.893 8.934 C 140.893 8.831,140.133 8.673,139.204 8.581 C 138.275 8.490,137.515 8.313,137.515 8.188 C 137.515 8.063,137.189 7.961,136.791 7.961 C 136.393 7.961,136.068 7.841,136.068 7.695 C 136.068 7.529,135.702 7.463,135.103 7.520 C 134.572 7.571,134.138 7.528,134.138 7.425 C 134.138 7.322,133.818 7.238,133.428 7.238 C 133.038 7.238,132.658 7.140,132.585 7.021 C 132.511 6.902,131.690 6.728,130.761 6.635 C 129.832 6.541,129.071 6.381,129.071 6.279 C 129.071 6.177,128.311 6.019,127.382 5.927 C 126.454 5.836,125.694 5.672,125.694 5.563 C 125.694 5.454,124.771 5.288,123.643 5.194 C 122.515 5.100,121.592 4.937,121.592 4.832 C 121.592 4.727,120.669 4.564,119.542 4.470 C 118.414 4.376,117.491 4.211,117.491 4.102 C 117.491 3.994,116.432 3.827,115.139 3.731 C 113.845 3.635,112.730 3.470,112.662 3.363 C 112.593 3.257,111.318 3.092,109.827 2.998 C 108.337 2.904,107.117 2.733,107.117 2.619 C 107.117 2.506,106.487 2.413,105.718 2.413 C 104.948 2.413,104.215 2.316,104.089 2.197 C 103.808 1.933,95.137 1.444,90.772 1.446 C 88.801 1.447,87.575 1.355,87.575 1.206 C 87.575 1.056,86.168 0.965,83.836 0.965 C 81.343 0.965,80.097 1.051,80.097 1.223 C 80.097 1.398,78.863 1.456,76.236 1.404 C 74.113 1.362,72.376 1.393,72.376 1.473 C 72.376 1.553,70.775 1.696,68.818 1.790 C 66.861 1.885,65.223 2.063,65.179 2.187 C 65.135 2.311,64.510 2.413,63.792 2.413 C 63.073 2.413,62.485 2.505,62.485 2.618 C 62.485 2.731,61.544 2.896,60.393 2.985 C 59.243 3.073,58.184 3.240,58.041 3.355 C 57.898 3.471,56.885 3.643,55.790 3.738 C 54.695 3.833,53.800 3.999,53.800 4.107 C 53.800 4.216,53.094 4.380,52.232 4.472 C 51.369 4.564,50.663 4.723,50.663 4.825 C 50.663 4.927,49.958 5.086,49.095 5.178 C 48.233 5.270,47.527 5.442,47.527 5.560 C 47.527 5.677,46.984 5.845,46.321 5.934 C 45.657 6.022,45.115 6.176,45.115 6.276 C 45.115 6.376,44.517 6.533,43.788 6.624 C 43.058 6.715,42.461 6.878,42.461 6.986 C 42.461 7.094,41.972 7.256,41.375 7.346 C 40.778 7.435,40.290 7.610,40.290 7.735 C 40.290 7.859,40.018 7.961,39.686 7.961 C 39.355 7.961,39.083 8.058,39.083 8.175 C 39.083 8.293,38.595 8.462,37.998 8.552 C 37.400 8.641,36.912 8.804,36.912 8.914 C 36.912 9.023,36.423 9.186,35.826 9.276 C 35.229 9.365,34.741 9.539,34.741 9.662 C 34.741 9.785,34.306 9.955,33.776 10.040 C 33.245 10.125,32.811 10.275,32.811 10.374 C 32.811 10.473,32.376 10.623,31.846 10.708 C 31.315 10.793,30.881 10.969,30.881 11.101 C 30.881 11.232,30.684 11.339,30.444 11.339 C 30.204 11.339,29.797 11.498,29.539 11.693 C 29.282 11.888,28.871 12.051,28.626 12.055 C 28.149 12.063,26.711 12.789,26.578 13.088 C 26.534 13.188,26.072 13.338,25.553 13.421 C 25.033 13.504,24.608 13.658,24.608 13.763 C 24.608 13.868,24.282 14.026,23.884 14.113 C 23.486 14.201,23.160 14.364,23.160 14.475 C 23.160 14.587,22.835 14.750,22.437 14.837 C 22.039 14.925,21.713 15.087,21.713 15.199 C 21.713 15.311,21.387 15.473,20.989 15.561 C 20.591 15.648,20.265 15.811,20.265 15.923 C 20.265 16.034,19.940 16.197,19.542 16.285 C 19.144 16.372,18.818 16.531,18.818 16.638 C 18.818 16.859,17.884 17.200,17.431 17.145 C 17.265 17.124,17.129 17.221,17.129 17.360 C 17.129 17.498,16.966 17.612,16.767 17.612 C 16.568 17.612,16.405 17.712,16.405 17.834 C 16.405 17.956,16.080 18.127,15.682 18.215 C 15.283 18.302,14.958 18.474,14.958 18.596 C 14.958 18.718,14.792 18.818,14.588 18.818 C 14.385 18.818,14.159 18.974,14.086 19.165 C 14.012 19.356,13.618 19.586,13.209 19.675 C 12.509 19.829,12.279 19.962,11.480 20.676 C 11.302 20.835,10.871 21.037,10.524 21.124 C 10.176 21.211,9.891 21.368,9.891 21.472 C 9.891 21.576,9.620 21.729,9.288 21.812 C 8.957 21.895,8.685 22.070,8.685 22.200 C 8.685 22.330,8.534 22.437,8.349 22.437 C 8.164 22.437,7.951 22.600,7.874 22.799 C 7.798 22.998,7.515 23.160,7.245 23.160 C 6.976 23.160,6.755 23.269,6.755 23.402 C 6.755 23.534,6.598 23.643,6.405 23.643 C 6.213 23.643,5.969 23.779,5.862 23.945 C 5.646 24.283,4.973 24.734,4.162 25.085 C 3.863 25.214,3.619 25.405,3.619 25.510 C 3.619 25.707,3.012 26.067,1.870 26.547 C 1.505 26.701,1.206 26.924,1.206 27.044 C 1.206 27.164,1.047 27.262,0.853 27.262 C -0.002 27.262,0.000 26.974,0.000 134.725 L 0.000 241.255 200.000 241.255 L 400.000 241.255 400.000 122.215 C 400.000 56.743,399.934 3.004,399.854 2.794 C 399.770 2.577,399.427 2.413,399.057 2.413 C 398.700 2.413,398.301 2.306,398.172 2.176 C 398.042 2.046,397.097 1.810,396.073 1.651 C 395.048 1.491,394.210 1.272,394.210 1.163 C 394.210 1.054,393.769 0.965,393.231 0.965 C 392.692 0.965,392.312 0.868,392.385 0.748 C 392.506 0.554,391.180 0.461,383.836 0.148 C 382.708 0.100,379.615 0.152,376.963 0.263 " stroke="none" fill="#3ca454" fill-rule="evenodd"></path><path id="path1" d="M74.608 1.386 C 75.636 1.431,77.319 1.431,78.347 1.386 C 79.376 1.340,78.534 1.303,76.478 1.303 C 74.421 1.303,73.580 1.340,74.608 1.386 M89.554 1.386 C 90.708 1.430,92.662 1.430,93.896 1.386 C 95.130 1.342,94.186 1.306,91.797 1.306 C 89.409 1.306,88.399 1.342,89.554 1.386 M368.097 1.377 C 368.397 1.435,368.831 1.432,369.062 1.372 C 369.293 1.312,369.047 1.264,368.516 1.267 C 367.986 1.270,367.797 1.319,368.097 1.377 M394.511 1.373 C 394.744 1.433,395.124 1.433,395.356 1.373 C 395.588 1.312,395.398 1.262,394.934 1.262 C 394.469 1.262,394.279 1.312,394.511 1.373 " stroke="none" fill="#40a454" fill-rule="evenodd"></path><path id="path2" d="M74.608 1.386 C 75.636 1.431,77.319 1.431,78.347 1.386 C 79.376 1.340,78.534 1.303,76.478 1.303 C 74.421 1.303,73.580 1.340,74.608 1.386 M89.554 1.386 C 90.708 1.430,92.662 1.430,93.896 1.386 C 95.130 1.342,94.186 1.306,91.797 1.306 C 89.409 1.306,88.399 1.342,89.554 1.386 M368.097 1.377 C 368.397 1.435,368.831 1.432,369.062 1.372 C 369.293 1.312,369.047 1.264,368.516 1.267 C 367.986 1.270,367.797 1.319,368.097 1.377 M394.511 1.373 C 394.744 1.433,395.124 1.433,395.356 1.373 C 395.588 1.312,395.398 1.262,394.934 1.262 C 394.469 1.262,394.279 1.312,394.511 1.373 " stroke="none" fill="#40a454" fill-rule="evenodd"></path><path id="path3" d="M74.608 1.386 C 75.636 1.431,77.319 1.431,78.347 1.386 C 79.376 1.340,78.534 1.303,76.478 1.303 C 74.421 1.303,73.580 1.340,74.608 1.386 M89.554 1.386 C 90.708 1.430,92.662 1.430,93.896 1.386 C 95.130 1.342,94.186 1.306,91.797 1.306 C 89.409 1.306,88.399 1.342,89.554 1.386 M368.097 1.377 C 368.397 1.435,368.831 1.432,369.062 1.372 C 369.293 1.312,369.047 1.264,368.516 1.267 C 367.986 1.270,367.797 1.319,368.097 1.377 M394.511 1.373 C 394.744 1.433,395.124 1.433,395.356 1.373 C 395.588 1.312,395.398 1.262,394.934 1.262 C 394.469 1.262,394.279 1.312,394.511 1.373 " stroke="none" fill="#40a454" fill-rule="evenodd"></path><path id="path4" d="M74.608 1.386 C 75.636 1.431,77.319 1.431,78.347 1.386 C 79.376 1.340,78.534 1.303,76.478 1.303 C 74.421 1.303,73.580 1.340,74.608 1.386 M89.554 1.386 C 90.708 1.430,92.662 1.430,93.896 1.386 C 95.130 1.342,94.186 1.306,91.797 1.306 C 89.409 1.306,88.399 1.342,89.554 1.386 M368.097 1.377 C 368.397 1.435,368.831 1.432,369.062 1.372 C 369.293 1.312,369.047 1.264,368.516 1.267 C 367.986 1.270,367.797 1.319,368.097 1.377 M394.511 1.373 C 394.744 1.433,395.124 1.433,395.356 1.373 C 395.588 1.312,395.398 1.262,394.934 1.262 C 394.469 1.262,394.279 1.312,394.511 1.373 " stroke="none" fill="#40a454" fill-rule="evenodd"></path><path id="path5" d="M74.608 1.386 C 75.636 1.431,77.319 1.431,78.347 1.386 C 79.376 1.340,78.534 1.303,76.478 1.303 C 74.421 1.303,73.580 1.340,74.608 1.386 M89.554 1.386 C 90.708 1.430,92.662 1.430,93.896 1.386 C 95.130 1.342,94.186 1.306,91.797 1.306 C 89.409 1.306,88.399 1.342,89.554 1.386 M368.097 1.377 C 368.397 1.435,368.831 1.432,369.062 1.372 C 369.293 1.312,369.047 1.264,368.516 1.267 C 367.986 1.270,367.797 1.319,368.097 1.377 M394.511 1.373 C 394.744 1.433,395.124 1.433,395.356 1.373 C 395.588 1.312,395.398 1.262,394.934 1.262 C 394.469 1.262,394.279 1.312,394.511 1.373 " stroke="none" fill="#40a454" fill-rule="evenodd"></path><path id="path6" d="M74.608 1.386 C 75.636 1.431,77.319 1.431,78.347 1.386 C 79.376 1.340,78.534 1.303,76.478 1.303 C 74.421 1.303,73.580 1.340,74.608 1.386 M89.554 1.386 C 90.708 1.430,92.662 1.430,93.896 1.386 C 95.130 1.342,94.186 1.306,91.797 1.306 C 89.409 1.306,88.399 1.342,89.554 1.386 M368.097 1.377 C 368.397 1.435,368.831 1.432,369.062 1.372 C 369.293 1.312,369.047 1.264,368.516 1.267 C 367.986 1.270,367.797 1.319,368.097 1.377 M394.511 1.373 C 394.744 1.433,395.124 1.433,395.356 1.373 C 395.588 1.312,395.398 1.262,394.934 1.262 C 394.469 1.262,394.279 1.312,394.511 1.373 " stroke="none" fill="#40a454" fill-rule="evenodd"></path><path id="path7" d="M74.608 1.386 C 75.636 1.431,77.319 1.431,78.347 1.386 C 79.376 1.340,78.534 1.303,76.478 1.303 C 74.421 1.303,73.580 1.340,74.608 1.386 M89.554 1.386 C 90.708 1.430,92.662 1.430,93.896 1.386 C 95.130 1.342,94.186 1.306,91.797 1.306 C 89.409 1.306,88.399 1.342,89.554 1.386 M368.097 1.377 C 368.397 1.435,368.831 1.432,369.062 1.372 C 369.293 1.312,369.047 1.264,368.516 1.267 C 367.986 1.270,367.797 1.319,368.097 1.377 M394.511 1.373 C 394.744 1.433,395.124 1.433,395.356 1.373 C 395.588 1.312,395.398 1.262,394.934 1.262 C 394.469 1.262,394.279 1.312,394.511 1.373 " stroke="none" fill="#40a454" fill-rule="evenodd"></path></g></svg>