<svg id="svg" version="1.1" xmlns="http://www.w3.org/2000/svg" xmlns:xlink="http://www.w3.org/1999/xlink" width="400" height="314.0740740740741" viewBox="0, 0, 400,314.0740740740741"><g id="svgg"><path id="path0" d="M54.988 1.194 C 54.988 1.332,55.333 1.445,55.753 1.445 C 56.174 1.445,56.449 1.332,56.363 1.194 C 56.278 1.056,55.934 0.943,55.598 0.943 C 55.263 0.943,54.988 1.056,54.988 1.194 M363.948 1.482 C 364.425 1.555,365.132 1.553,365.519 1.478 C 365.905 1.403,365.515 1.344,364.650 1.347 C 363.786 1.349,363.470 1.410,363.948 1.482 M47.452 1.754 C 47.444 2.293,47.829 2.534,48.204 2.227 C 48.392 2.072,48.900 1.881,49.332 1.801 C 49.995 1.679,49.959 1.650,49.097 1.614 C 48.469 1.588,48.074 1.722,48.071 1.964 C 48.067 2.226,47.964 2.200,47.761 1.885 C 47.594 1.626,47.454 1.567,47.452 1.754 M238.378 28.751 C 238.478 29.010,238.597 29.222,238.644 29.222 C 238.691 29.222,238.905 29.010,239.120 28.751 C 239.447 28.358,239.403 28.280,238.854 28.280 C 238.399 28.280,238.253 28.425,238.378 28.751 M236.057 29.996 C 235.149 30.419,234.407 30.837,234.407 30.925 C 234.407 31.138,237.308 29.893,237.690 29.517 C 238.139 29.074,237.864 29.155,236.057 29.996 M231.367 32.224 C 230.819 32.464,230.283 32.801,230.177 32.973 C 229.961 33.322,232.197 32.466,232.663 32.021 C 233.085 31.618,232.564 31.700,231.367 32.224 M228.360 33.887 C 227.713 34.173,227.182 34.516,227.181 34.649 C 227.181 34.782,227.745 34.602,228.437 34.250 C 229.128 33.897,229.694 33.541,229.694 33.458 C 229.694 33.375,229.658 33.321,229.615 33.337 C 229.572 33.354,229.007 33.601,228.360 33.887 M224.135 36.159 C 223.411 36.517,222.634 37.042,222.407 37.324 C 222.160 37.633,222.623 37.481,223.566 36.945 C 226.079 35.516,226.439 35.018,224.135 36.159 M220.346 38.371 C 218.928 39.279,219.059 39.488,220.503 38.620 C 221.963 37.741,222.010 37.705,221.655 37.711 C 221.496 37.714,220.907 38.011,220.346 38.371 M217.753 39.847 C 217.148 40.139,216.606 40.483,216.549 40.613 C 216.491 40.742,216.208 40.860,215.920 40.873 C 215.617 40.888,215.556 40.963,215.775 41.052 C 216.115 41.190,219.010 39.716,219.010 39.405 C 219.010 39.239,219.033 39.231,217.753 39.847 M213.747 42.416 C 212.694 43.058,212.296 43.620,213.276 43.082 C 214.005 42.681,215.124 41.813,214.925 41.802 C 214.839 41.797,214.309 42.074,213.747 42.416 M210.448 44.485 C 209.973 44.742,209.584 45.019,209.584 45.100 C 209.584 45.429,210.186 45.211,210.884 44.629 C 211.768 43.893,211.626 43.845,210.448 44.485 M207.977 46.214 L 206.913 47.180 208.087 46.450 C 208.733 46.048,209.263 45.613,209.266 45.483 C 209.272 45.098,209.094 45.199,207.977 46.214 M205.342 48.075 C 204.650 48.580,203.900 48.998,203.674 49.005 C 203.447 49.012,203.350 49.159,203.456 49.332 C 203.563 49.505,203.512 49.647,203.342 49.647 C 203.101 49.647,199.778 52.100,196.229 54.898 C 195.385 55.564,192.440 57.984,192.302 58.126 C 192.215 58.215,190.881 59.419,189.336 60.801 C 184.948 64.729,181.775 67.818,181.949 67.993 C 182.037 68.080,183.518 66.763,185.241 65.065 C 190.477 59.906,198.605 53.110,203.772 49.572 C 205.233 48.572,206.984 47.155,206.756 47.157 C 206.669 47.158,206.033 47.571,205.342 48.075 M180.349 69.364 C 179.768 70.012,177.964 71.956,176.340 73.684 C 174.716 75.412,173.107 77.251,172.765 77.769 C 172.423 78.288,172.966 77.793,173.972 76.669 C 174.978 75.546,176.865 73.496,178.166 72.113 C 179.467 70.731,180.798 69.281,181.123 68.892 C 182.106 67.720,181.483 68.099,180.349 69.364 M171.104 79.652 C 170.592 80.070,170.274 80.513,170.397 80.635 C 170.520 80.758,170.656 80.800,170.699 80.728 C 170.742 80.656,171.120 80.208,171.539 79.733 C 172.472 78.675,172.332 78.649,171.104 79.652 M169.003 82.404 C 168.430 83.138,168.213 83.540,168.520 83.296 C 169.130 82.812,170.442 81.068,170.197 81.068 C 170.113 81.068,169.576 81.669,169.003 82.404 M167.069 84.918 C 166.134 86.183,165.822 86.724,166.031 86.724 C 166.119 86.724,166.629 86.088,167.164 85.310 C 168.279 83.690,168.205 83.382,167.069 84.918 M165.303 87.481 C 164.391 88.579,162.195 92.227,162.357 92.374 C 162.456 92.464,162.600 92.361,162.677 92.145 C 162.754 91.929,163.510 90.692,164.356 89.396 C 165.791 87.197,166.164 86.444,165.303 87.481 M161.272 93.716 C 160.691 94.444,159.882 96.222,160.230 96.007 C 160.419 95.890,160.858 95.238,161.205 94.558 C 161.835 93.323,161.863 92.975,161.272 93.716 M158.575 98.718 C 157.462 101.299,157.674 101.358,158.907 98.810 C 159.448 97.693,159.782 96.779,159.651 96.779 C 159.519 96.779,159.035 97.652,158.575 98.718 M156.483 103.998 C 156.289 104.719,156.184 105.472,156.250 105.671 C 156.316 105.870,156.543 105.347,156.754 104.510 C 156.965 103.672,157.070 102.919,156.987 102.837 C 156.904 102.754,156.677 103.276,156.483 103.998 M155.617 109.191 C 155.621 109.882,155.685 110.128,155.760 109.737 C 155.835 109.346,155.833 108.781,155.754 108.480 C 155.675 108.180,155.614 108.500,155.617 109.191 M155.138 114.146 C 155.054 114.365,155.093 115.108,155.225 115.796 L 155.466 117.046 155.502 115.397 C 155.538 113.756,155.430 113.385,155.138 114.146 M155.611 120.031 C 155.611 120.636,155.676 120.884,155.755 120.581 C 155.834 120.279,155.834 119.784,155.755 119.482 C 155.676 119.179,155.611 119.427,155.611 120.031 M156.268 125.137 C 156.299 125.958,156.395 126.630,156.483 126.630 C 156.778 126.630,157.367 128.346,158.046 131.186 C 158.418 132.742,158.898 134.297,159.113 134.643 C 159.329 134.988,159.909 136.402,160.403 137.785 C 160.897 139.167,161.383 140.369,161.483 140.456 C 161.583 140.542,162.487 142.239,163.492 144.226 C 165.814 148.819,166.927 150.780,168.916 153.779 C 169.249 154.280,169.773 155.106,170.081 155.615 C 170.389 156.123,171.450 157.622,172.439 158.945 C 173.427 160.268,174.486 161.739,174.791 162.213 C 175.095 162.686,176.261 164.200,177.382 165.576 C 178.502 166.953,179.419 168.170,179.419 168.281 C 179.419 168.392,179.808 168.876,180.283 169.357 C 180.758 169.837,181.642 170.836,182.247 171.577 C 187.628 178.165,201.507 192.042,210.830 200.157 C 211.922 201.108,213.205 202.274,213.682 202.749 C 214.159 203.225,214.692 203.614,214.866 203.614 C 215.041 203.614,215.541 204.038,215.977 204.556 C 216.413 205.075,216.869 205.499,216.991 205.499 C 217.112 205.499,217.797 206.029,218.512 206.677 C 220.627 208.595,223.145 210.674,223.520 210.813 C 223.712 210.884,224.130 211.272,224.448 211.677 C 224.766 212.081,225.187 212.412,225.385 212.412 C 225.582 212.412,226.032 212.697,226.383 213.046 C 227.313 213.967,231.004 216.911,234.171 219.255 C 235.683 220.375,236.921 221.414,236.921 221.565 C 236.921 221.715,237.072 221.838,237.258 221.838 C 237.443 221.838,238.610 222.612,239.850 223.557 C 241.090 224.503,242.645 225.669,243.305 226.150 C 243.964 226.630,244.777 227.270,245.111 227.573 C 245.445 227.875,245.795 228.123,245.887 228.123 C 245.980 228.123,246.958 228.794,248.061 229.615 C 249.163 230.436,250.537 231.431,251.113 231.826 C 251.689 232.222,253.406 233.459,254.928 234.577 C 256.451 235.695,258.077 236.807,258.542 237.049 C 259.007 237.290,259.913 237.891,260.555 238.383 C 263.299 240.486,264.494 241.320,264.763 241.320 C 264.921 241.320,265.431 241.673,265.897 242.105 C 266.363 242.537,266.831 242.891,266.937 242.891 C 267.043 242.891,268.004 243.505,269.072 244.256 C 270.140 245.007,271.261 245.710,271.563 245.817 C 271.866 245.925,272.113 246.159,272.113 246.337 C 272.113 246.516,272.259 246.661,272.438 246.661 C 272.617 246.661,273.783 247.344,275.030 248.179 C 277.763 250.008,283.239 253.548,286.165 255.377 C 291.615 258.783,294.296 260.495,294.645 260.792 C 294.854 260.970,295.172 261.115,295.352 261.115 C 295.532 261.115,295.679 261.257,295.679 261.430 C 295.679 261.603,295.842 261.744,296.040 261.744 C 296.238 261.744,297.146 262.239,298.057 262.844 C 298.968 263.449,299.799 263.943,299.903 263.943 C 300.008 263.943,301.150 264.644,302.442 265.499 C 303.735 266.355,304.794 266.956,304.797 266.835 C 304.799 266.713,304.906 266.778,305.033 266.979 C 305.259 267.334,306.446 268.050,309.662 269.774 C 310.526 270.238,311.428 270.777,311.667 270.972 C 311.906 271.168,312.851 271.752,313.767 272.270 C 314.684 272.789,317.104 274.189,319.146 275.383 C 321.189 276.576,323.496 277.911,324.273 278.349 C 325.051 278.787,325.758 279.225,325.844 279.322 C 325.931 279.418,326.849 279.921,327.884 280.440 C 328.920 280.958,329.951 281.555,330.176 281.767 C 330.401 281.978,331.180 282.446,331.907 282.807 C 332.634 283.168,334.077 283.944,335.114 284.532 C 336.151 285.120,337.883 286.032,338.963 286.559 C 340.043 287.085,340.927 287.625,340.927 287.758 C 340.927 287.891,341.645 288.278,342.523 288.619 C 343.401 288.959,344.355 289.452,344.644 289.713 C 344.933 289.975,345.805 290.460,346.583 290.792 C 347.361 291.123,348.138 291.546,348.311 291.731 C 348.484 291.916,349.403 292.419,350.353 292.849 C 351.304 293.279,352.152 293.724,352.239 293.839 C 352.463 294.136,359.995 298.092,370.306 303.327 C 373.244 304.818,375.789 306.149,375.962 306.284 C 376.135 306.418,376.911 306.809,377.686 307.153 C 378.461 307.496,381.961 309.221,385.463 310.985 C 388.965 312.750,391.830 314.055,391.830 313.885 C 391.830 313.715,391.441 313.406,390.966 313.197 C 390.491 312.988,390.031 312.726,389.945 312.615 C 389.859 312.503,389.010 312.088,388.060 311.691 C 387.109 311.295,386.119 310.811,385.860 310.615 C 385.601 310.420,384.611 309.913,383.661 309.490 C 382.710 309.066,381.791 308.611,381.618 308.479 C 381.050 308.044,369.896 302.592,369.574 302.592 C 369.401 302.592,369.212 302.471,369.154 302.322 C 369.097 302.174,368.413 301.745,367.636 301.370 C 366.858 300.994,364.525 299.790,362.451 298.695 C 360.377 297.599,357.408 296.032,355.852 295.211 C 353.091 293.755,350.695 292.478,347.840 290.942 C 347.062 290.523,346.355 290.110,346.268 290.024 C 346.182 289.937,345.639 289.618,345.061 289.315 C 340.949 287.153,336.172 284.548,334.328 283.461 C 332.535 282.404,331.426 281.782,329.458 280.728 C 328.594 280.265,327.816 279.796,327.730 279.685 C 327.643 279.575,327.191 279.317,326.724 279.112 C 326.258 278.907,325.268 278.348,324.525 277.869 C 323.782 277.391,322.679 276.743,322.074 276.429 C 321.469 276.116,319.914 275.238,318.617 274.479 C 317.321 273.720,315.554 272.718,314.690 272.252 C 313.826 271.786,313.071 271.281,313.014 271.130 C 312.956 270.980,312.765 270.856,312.588 270.856 C 312.412 270.856,311.634 270.429,310.860 269.907 C 310.087 269.385,308.935 268.693,308.301 268.369 C 307.667 268.046,306.374 267.271,305.427 266.648 C 304.481 266.025,303.526 265.515,303.306 265.515 C 303.086 265.515,302.907 265.370,302.907 265.193 C 302.907 265.015,302.524 264.725,302.055 264.547 C 301.587 264.369,300.387 263.665,299.388 262.984 C 298.389 262.302,297.474 261.744,297.354 261.744 C 297.235 261.744,295.980 260.966,294.566 260.016 C 293.152 259.065,291.910 258.288,291.805 258.288 C 291.524 258.288,286.807 255.238,286.227 254.680 C 285.953 254.418,285.587 254.203,285.414 254.203 C 285.240 254.203,284.309 253.637,283.343 252.946 C 282.378 252.255,281.458 251.689,281.298 251.689 C 281.139 251.689,280.753 251.406,280.440 251.060 C 280.127 250.715,279.734 250.432,279.567 250.432 C 279.400 250.432,278.371 249.796,277.281 249.018 C 276.191 248.240,275.210 247.604,275.100 247.604 C 274.991 247.604,273.505 246.614,271.799 245.405 C 270.093 244.195,268.608 243.205,268.500 243.205 C 268.391 243.205,266.916 242.215,265.222 241.005 C 263.527 239.796,261.986 238.806,261.796 238.806 C 261.607 238.806,261.300 238.523,261.115 238.178 C 260.930 237.832,260.624 237.549,260.435 237.549 C 260.246 237.549,258.835 236.630,257.298 235.507 C 255.762 234.383,254.433 233.464,254.345 233.464 C 254.194 233.464,248.021 228.959,246.949 228.066 C 246.675 227.838,246.110 227.452,245.692 227.208 C 245.275 226.964,244.014 226.038,242.891 225.150 C 241.767 224.262,240.332 223.221,239.701 222.837 C 239.070 222.454,238.474 221.930,238.376 221.675 C 238.278 221.419,238.035 221.210,237.837 221.210 C 237.475 221.210,231.683 216.796,230.446 215.577 C 230.082 215.219,229.676 214.925,229.544 214.925 C 229.412 214.925,227.730 213.612,225.807 212.006 C 223.883 210.400,221.749 208.668,221.063 208.157 C 220.378 207.645,219.459 206.920,219.021 206.545 C 216.189 204.120,209.092 197.852,207.367 196.253 C 206.234 195.203,203.993 193.142,202.388 191.673 C 199.400 188.938,192.681 182.278,190.754 180.141 C 180.642 168.928,178.476 166.429,178.476 165.979 C 178.476 165.807,178.123 165.434,177.690 165.151 C 177.258 164.868,176.905 164.500,176.905 164.333 C 176.905 164.045,172.371 157.820,171.396 156.769 C 171.143 156.495,170.935 156.164,170.935 156.033 C 170.935 155.902,170.391 154.995,169.726 154.017 C 168.711 152.524,167.191 150.040,165.378 146.911 C 165.174 146.557,164.711 145.632,164.350 144.855 C 163.988 144.077,163.495 143.087,163.253 142.655 C 162.387 141.110,161.508 139.111,161.508 138.687 C 161.508 138.450,161.390 138.256,161.246 138.256 C 161.102 138.256,160.591 137.090,160.111 135.664 C 159.631 134.238,159.125 132.930,158.987 132.757 C 158.708 132.410,157.423 127.297,157.423 126.535 C 157.423 126.270,157.271 126.003,157.084 125.941 C 156.897 125.878,156.625 125.336,156.479 124.736 C 156.225 123.697,156.215 123.716,156.268 125.137 M39.592 157.738 C 39.592 157.910,39.804 158.052,40.063 158.052 C 40.322 158.052,40.534 157.910,40.534 157.738 C 40.534 157.565,40.322 157.423,40.063 157.423 C 39.804 157.423,39.592 157.565,39.592 157.738 M37.329 158.115 C 37.622 158.408,37.790 158.408,38.083 158.115 C 38.377 157.821,38.293 157.738,37.706 157.738 C 37.120 157.738,37.036 157.821,37.329 158.115 M24.618 159.979 C 25.034 160.221,25.296 160.218,25.545 159.970 C 25.798 159.717,25.641 159.626,24.965 159.632 C 24.152 159.641,24.109 159.684,24.618 159.979 M16.496 160.880 C 16.390 161.053,16.602 161.194,16.968 161.194 C 17.334 161.194,17.546 161.053,17.439 160.880 C 17.332 160.707,17.120 160.566,16.968 160.566 C 16.815 160.566,16.603 160.707,16.496 160.880 M13.763 161.571 C 14.056 161.864,14.224 161.864,14.517 161.571 C 14.810 161.278,14.726 161.194,14.140 161.194 C 13.553 161.194,13.469 161.278,13.763 161.571 M10.998 161.822 C 10.998 161.995,11.210 162.137,11.469 162.137 C 11.728 162.137,11.940 161.995,11.940 161.822 C 11.940 161.650,11.728 161.508,11.469 161.508 C 11.210 161.508,10.998 161.650,10.998 161.822 M8.107 162.200 C 8.400 162.493,8.568 162.493,8.861 162.200 C 9.154 161.906,9.070 161.822,8.484 161.822 C 7.897 161.822,7.814 161.906,8.107 162.200 M5.027 162.451 C 5.027 162.624,5.240 162.765,5.499 162.765 C 5.758 162.765,5.970 162.624,5.970 162.451 C 5.970 162.278,5.758 162.137,5.499 162.137 C 5.240 162.137,5.027 162.278,5.027 162.451 M2.042 162.765 C 1.936 162.938,2.139 163.079,2.495 163.079 C 2.851 163.079,3.142 162.938,3.142 162.765 C 3.142 162.592,2.938 162.451,2.689 162.451 C 2.440 162.451,2.149 162.592,2.042 162.765 " stroke="none" fill="#5cdc7c" fill-rule="evenodd"></path><path id="path1" d="M357.200 1.535 C 356.904 1.641,354.754 1.717,352.423 1.704 C 350.091 1.690,348.234 1.761,348.296 1.861 C 348.358 1.961,347.679 2.040,346.788 2.038 C 345.898 2.035,344.391 2.127,343.441 2.243 C 342.490 2.358,340.228 2.547,338.413 2.664 C 336.599 2.780,334.760 2.919,334.328 2.971 C 333.896 3.023,332.092 3.169,330.320 3.295 C 328.547 3.421,327.026 3.638,326.940 3.777 C 326.854 3.916,326.338 3.959,325.794 3.873 C 325.249 3.788,324.507 3.858,324.145 4.030 C 323.596 4.291,321.808 4.565,314.776 5.466 C 314.478 5.504,314.148 5.621,314.043 5.727 C 313.937 5.832,313.509 5.857,313.092 5.781 C 312.675 5.706,312.333 5.753,312.333 5.886 C 312.333 6.020,311.944 6.156,311.469 6.188 C 310.994 6.221,309.474 6.479,308.091 6.762 C 306.709 7.044,305.153 7.333,304.635 7.403 C 304.116 7.473,303.339 7.627,302.907 7.744 C 302.474 7.862,301.944 7.929,301.728 7.893 C 301.512 7.857,301.335 7.999,301.335 8.208 C 301.335 8.417,301.261 8.514,301.170 8.423 C 301.079 8.332,299.417 8.596,297.478 9.010 C 295.538 9.424,293.458 9.834,292.855 9.921 C 292.252 10.008,291.623 10.215,291.457 10.382 C 291.291 10.548,290.847 10.683,290.472 10.683 C 290.096 10.683,289.170 10.902,288.413 11.169 C 287.657 11.436,286.544 11.732,285.939 11.827 C 285.334 11.922,284.698 12.110,284.525 12.245 C 284.352 12.380,283.786 12.565,283.268 12.656 C 281.334 12.998,280.384 13.245,278.240 13.961 C 276.369 14.586,274.602 15.082,273.998 15.152 C 273.912 15.162,273.111 15.422,272.218 15.729 C 271.325 16.036,270.512 16.205,270.411 16.104 C 270.310 16.003,270.228 16.069,270.228 16.250 C 270.228 16.539,268.473 17.145,266.621 17.496 C 266.279 17.561,265.862 17.752,265.694 17.919 C 265.526 18.087,264.969 18.225,264.457 18.225 C 263.944 18.225,263.628 18.328,263.754 18.455 C 263.951 18.651,262.604 19.122,260.374 19.638 C 260.053 19.712,259.195 20.061,258.468 20.413 C 257.741 20.765,256.977 21.053,256.771 21.053 C 256.564 21.053,255.796 21.320,255.063 21.647 C 253.183 22.486,248.137 24.540,247.761 24.619 C 247.588 24.655,246.791 25.004,245.989 25.394 C 245.187 25.784,244.207 26.165,243.812 26.241 C 243.417 26.317,243.013 26.511,242.913 26.673 C 242.813 26.834,242.096 27.213,241.319 27.514 C 240.542 27.816,239.676 28.259,239.396 28.498 C 239.116 28.737,236.288 30.240,233.112 31.838 C 222.861 36.995,211.788 43.622,204.877 48.737 C 203.750 49.571,202.192 50.718,201.414 51.285 C 191.375 58.609,178.792 70.638,170.935 80.421 C 170.330 81.175,169.465 82.229,169.013 82.765 C 168.561 83.301,166.965 85.577,165.466 87.824 C 163.967 90.071,162.617 92.067,162.465 92.260 C 162.313 92.454,161.820 93.302,161.368 94.146 C 160.917 94.989,160.231 96.245,159.844 96.936 C 157.707 100.754,156.444 104.611,155.831 109.191 C 155.137 114.368,155.985 125.574,157.098 125.946 C 157.277 126.005,157.423 126.270,157.423 126.535 C 157.423 127.297,158.708 132.410,158.987 132.757 C 159.125 132.930,159.631 134.238,160.111 135.664 C 160.591 137.090,161.102 138.256,161.246 138.256 C 161.390 138.256,161.508 138.450,161.508 138.687 C 161.508 139.111,162.387 141.110,163.253 142.655 C 163.495 143.087,163.988 144.077,164.350 144.855 C 164.711 145.632,165.174 146.557,165.378 146.911 C 167.191 150.040,168.711 152.524,169.726 154.017 C 170.391 154.995,170.935 155.902,170.935 156.033 C 170.935 156.164,171.143 156.495,171.396 156.769 C 172.371 157.820,176.905 164.045,176.905 164.333 C 176.905 164.500,177.258 164.868,177.690 165.151 C 178.123 165.434,178.476 165.807,178.476 165.979 C 178.476 166.429,180.642 168.928,190.754 180.141 C 192.681 182.278,199.400 188.938,202.388 191.673 C 203.993 193.142,206.234 195.203,207.367 196.253 C 209.092 197.852,216.189 204.120,219.021 206.545 C 219.459 206.920,220.378 207.645,221.063 208.157 C 221.749 208.668,223.883 210.400,225.807 212.006 C 227.730 213.612,229.412 214.925,229.544 214.925 C 229.676 214.925,230.082 215.219,230.446 215.577 C 231.530 216.645,237.348 221.091,237.942 221.306 C 238.244 221.415,238.492 221.639,238.492 221.803 C 238.492 221.967,239.022 222.424,239.670 222.818 C 240.318 223.212,241.767 224.262,242.891 225.150 C 244.014 226.038,245.275 226.964,245.692 227.208 C 246.110 227.452,246.675 227.838,246.949 228.066 C 248.021 228.959,254.194 233.464,254.345 233.464 C 254.433 233.464,255.762 234.383,257.298 235.507 C 258.835 236.630,260.246 237.549,260.435 237.549 C 260.624 237.549,260.930 237.832,261.115 238.178 C 261.300 238.523,261.607 238.806,261.796 238.806 C 261.986 238.806,263.527 239.796,265.222 241.005 C 266.916 242.215,268.391 243.205,268.500 243.205 C 268.608 243.205,270.093 244.195,271.799 245.405 C 273.505 246.614,274.991 247.604,275.100 247.604 C 275.210 247.604,276.191 248.240,277.281 249.018 C 278.371 249.796,279.400 250.432,279.567 250.432 C 279.734 250.432,280.127 250.715,280.440 251.060 C 280.753 251.406,281.139 251.689,281.298 251.689 C 281.458 251.689,282.378 252.255,283.343 252.946 C 284.309 253.637,285.240 254.203,285.414 254.203 C 285.587 254.203,285.953 254.418,286.227 254.680 C 286.807 255.238,291.524 258.288,291.805 258.288 C 291.910 258.288,293.152 259.065,294.566 260.016 C 295.980 260.966,297.235 261.744,297.354 261.744 C 297.474 261.744,298.389 262.302,299.388 262.984 C 300.387 263.665,301.587 264.369,302.055 264.547 C 302.524 264.725,302.907 265.015,302.907 265.193 C 302.907 265.370,303.086 265.515,303.306 265.515 C 303.526 265.515,304.481 266.025,305.427 266.648 C 306.374 267.271,307.667 268.046,308.301 268.369 C 308.935 268.693,310.087 269.385,310.860 269.907 C 311.634 270.429,312.412 270.856,312.588 270.856 C 312.765 270.856,312.956 270.980,313.014 271.130 C 313.071 271.281,313.826 271.786,314.690 272.252 C 315.554 272.718,317.321 273.720,318.617 274.479 C 319.914 275.238,321.469 276.116,322.074 276.429 C 322.679 276.743,323.782 277.391,324.525 277.869 C 325.268 278.348,326.258 278.907,326.724 279.112 C 327.191 279.317,327.643 279.575,327.730 279.685 C 327.816 279.796,328.594 280.265,329.458 280.728 C 331.426 281.782,332.535 282.404,334.328 283.461 C 336.172 284.548,340.949 287.153,345.061 289.315 C 345.639 289.618,346.182 289.937,346.268 290.024 C 346.355 290.110,347.062 290.523,347.840 290.942 C 350.695 292.478,353.091 293.755,355.852 295.211 C 357.408 296.032,360.377 297.599,362.451 298.695 C 364.525 299.790,366.858 300.994,367.636 301.370 C 368.413 301.745,369.097 302.174,369.154 302.322 C 369.212 302.471,369.401 302.592,369.574 302.592 C 369.896 302.592,381.050 308.044,381.618 308.479 C 381.791 308.611,382.710 309.066,383.661 309.490 C 384.611 309.913,385.601 310.422,385.860 310.621 C 386.119 310.820,387.145 311.312,388.138 311.716 C 389.132 312.119,389.945 312.564,389.945 312.705 C 389.945 312.846,390.157 312.962,390.416 312.962 C 390.676 312.962,391.170 313.244,391.516 313.590 C 392.078 314.151,392.563 314.218,396.073 314.218 L 400.001 314.218 399.922 158.759 L 399.843 3.299 399.057 3.256 C 396.728 3.126,392.279 2.742,392.134 2.658 C 392.041 2.604,390.910 2.530,389.620 2.494 C 388.330 2.457,387.150 2.357,386.999 2.271 C 386.848 2.184,385.787 2.071,384.643 2.018 C 383.498 1.965,380.652 1.834,378.319 1.728 C 372.056 1.442,357.821 1.312,357.200 1.535 " stroke="none" fill="#54d47c" fill-rule="evenodd"></path><path id="path2" d="" stroke="none" fill="#5ce47d" fill-rule="evenodd"></path><path id="path3" d="M73.154 0.164 C 73.042 0.276,71.452 0.365,69.620 0.363 C 67.143 0.359,66.347 0.453,66.512 0.729 C 66.668 0.988,66.590 0.983,66.253 0.710 C 65.988 0.495,65.700 0.391,65.612 0.478 C 65.525 0.565,64.407 0.661,63.128 0.690 C 61.848 0.720,60.625 0.876,60.408 1.039 C 60.160 1.225,60.016 1.220,60.016 1.024 C 60.016 0.854,59.698 0.748,59.309 0.788 C 58.920 0.829,58.063 0.880,57.405 0.903 C 56.747 0.925,56.278 1.056,56.363 1.194 C 56.449 1.332,56.174 1.445,55.753 1.445 C 55.333 1.445,54.986 1.297,54.983 1.115 C 54.980 0.899,54.899 0.894,54.748 1.100 C 54.621 1.273,53.881 1.421,53.103 1.430 C 51.281 1.451,48.622 1.873,48.282 2.195 C 48.136 2.333,47.647 2.254,47.194 2.019 C 46.608 1.715,46.309 1.692,46.157 1.939 C 46.039 2.130,45.574 2.215,45.124 2.129 C 44.673 2.043,44.305 2.090,44.305 2.233 C 44.305 2.377,44.069 2.404,43.782 2.293 C 43.494 2.183,43.340 2.223,43.438 2.382 C 43.541 2.547,42.824 2.649,41.762 2.620 C 40.741 2.593,39.906 2.664,39.906 2.779 C 39.906 2.894,38.889 3.024,37.645 3.067 C 36.261 3.115,35.289 3.297,35.136 3.536 C 34.968 3.802,34.886 3.812,34.883 3.568 C 34.880 3.317,34.534 3.286,33.740 3.465 C 33.115 3.606,32.383 3.637,32.115 3.534 C 31.738 3.390,31.680 3.485,31.857 3.952 C 32.022 4.385,31.991 4.460,31.747 4.219 C 31.401 3.876,29.537 3.991,29.537 4.356 C 29.537 4.466,29.006 4.573,28.358 4.594 C 26.003 4.671,22.792 5.069,22.631 5.304 C 22.541 5.437,21.875 5.528,21.152 5.506 C 20.083 5.473,19.806 5.583,19.673 6.093 C 19.510 6.715,19.502 6.715,18.813 6.110 C 18.430 5.774,18.215 5.667,18.335 5.873 C 18.470 6.105,18.342 6.238,17.996 6.224 C 17.690 6.212,17.086 6.290,16.654 6.397 C 16.222 6.504,15.444 6.683,14.925 6.795 C 14.407 6.906,13.819 7.126,13.618 7.284 C 13.395 7.460,13.179 7.453,13.064 7.265 C 12.945 7.072,12.506 7.065,11.878 7.245 C 11.330 7.402,10.820 7.468,10.743 7.391 C 10.666 7.315,10.184 7.469,9.672 7.734 C 9.159 7.999,8.659 8.135,8.559 8.036 C 8.460 7.937,8.568 7.855,8.798 7.855 C 9.029 7.855,9.141 7.779,9.048 7.687 C 8.839 7.477,7.227 8.189,7.227 8.491 C 7.227 8.612,6.873 8.643,6.440 8.560 C 6.007 8.478,5.414 8.603,5.122 8.840 C 4.686 9.193,4.638 9.194,4.848 8.845 C 5.055 8.501,4.977 8.489,4.430 8.781 C 4.060 8.979,3.613 9.052,3.436 8.943 C 3.259 8.833,2.942 8.887,2.732 9.062 C 2.521 9.236,1.927 9.425,1.410 9.481 C 0.894 9.538,0.367 9.725,0.240 9.898 C 0.114 10.071,0.007 78.614,0.005 162.215 L 0.000 314.218 195.837 314.213 L 391.673 314.207 390.102 313.343 C 387.994 312.183,376.841 306.677,376.599 306.677 C 376.493 306.677,376.236 306.534,376.028 306.358 C 375.819 306.182,373.244 304.818,370.306 303.327 C 359.995 298.092,352.463 294.136,352.239 293.839 C 352.152 293.724,351.304 293.279,350.353 292.849 C 349.403 292.419,348.484 291.916,348.311 291.731 C 348.138 291.546,347.361 291.123,346.583 290.792 C 345.805 290.460,344.933 289.975,344.644 289.713 C 344.355 289.452,343.401 288.959,342.523 288.619 C 341.645 288.278,340.927 287.891,340.927 287.758 C 340.927 287.625,340.043 287.085,338.963 286.559 C 337.883 286.032,336.151 285.120,335.114 284.532 C 334.077 283.944,332.634 283.168,331.907 282.807 C 331.180 282.446,330.401 281.978,330.176 281.767 C 329.951 281.555,328.920 280.958,327.884 280.440 C 326.849 279.921,325.931 279.418,325.844 279.322 C 325.758 279.225,325.051 278.787,324.273 278.349 C 323.496 277.911,321.189 276.576,319.146 275.383 C 317.104 274.189,314.684 272.789,313.767 272.270 C 312.851 271.752,311.906 271.168,311.667 270.972 C 311.428 270.777,310.526 270.238,309.662 269.774 C 306.446 268.050,305.259 267.334,305.033 266.979 C 304.906 266.778,304.799 266.713,304.797 266.835 C 304.794 266.956,303.735 266.355,302.442 265.499 C 301.150 264.644,300.008 263.943,299.903 263.943 C 299.799 263.943,298.968 263.449,298.057 262.844 C 297.146 262.239,296.238 261.744,296.040 261.744 C 295.842 261.744,295.679 261.603,295.679 261.430 C 295.679 261.257,295.532 261.115,295.352 261.115 C 295.172 261.115,294.854 260.970,294.645 260.792 C 294.296 260.495,291.615 258.783,286.165 255.377 C 283.239 253.548,277.763 250.008,275.030 248.179 C 273.783 247.344,272.617 246.661,272.438 246.661 C 272.259 246.661,272.113 246.516,272.113 246.337 C 272.113 246.159,271.866 245.925,271.563 245.817 C 271.261 245.710,270.140 245.007,269.072 244.256 C 268.004 243.505,267.043 242.891,266.937 242.891 C 266.831 242.891,266.363 242.537,265.897 242.105 C 265.431 241.673,264.921 241.320,264.763 241.320 C 264.494 241.320,263.299 240.486,260.555 238.383 C 259.913 237.891,259.007 237.290,258.542 237.049 C 258.077 236.807,256.451 235.695,254.928 234.577 C 253.406 233.459,251.689 232.222,251.113 231.826 C 250.537 231.431,249.163 230.436,248.061 229.615 C 246.958 228.794,245.980 228.123,245.887 228.123 C 245.795 228.123,245.445 227.875,245.111 227.573 C 244.777 227.270,243.964 226.630,243.305 226.150 C 242.645 225.669,241.090 224.503,239.850 223.557 C 238.610 222.612,237.443 221.838,237.258 221.838 C 237.072 221.838,236.921 221.715,236.921 221.565 C 236.921 221.414,235.683 220.375,234.171 219.255 C 231.004 216.911,227.313 213.967,226.383 213.046 C 226.032 212.697,225.582 212.412,225.385 212.412 C 225.187 212.412,224.766 212.081,224.448 211.677 C 224.130 211.272,223.712 210.884,223.520 210.813 C 223.145 210.674,220.627 208.595,218.512 206.677 C 217.797 206.029,217.112 205.499,216.991 205.499 C 216.869 205.499,216.413 205.075,215.977 204.556 C 215.541 204.038,215.041 203.614,214.866 203.614 C 214.692 203.614,214.159 203.225,213.682 202.749 C 213.205 202.274,211.922 201.108,210.830 200.157 C 201.507 192.042,187.628 178.165,182.247 171.577 C 181.642 170.836,180.758 169.837,180.283 169.357 C 179.808 168.876,179.419 168.392,179.419 168.281 C 179.419 168.170,178.502 166.953,177.382 165.576 C 176.261 164.200,175.095 162.686,174.791 162.213 C 174.486 161.739,173.427 160.268,172.439 158.945 C 171.450 157.622,170.389 156.123,170.081 155.615 C 169.773 155.106,169.249 154.280,168.916 153.779 C 166.927 150.780,165.814 148.819,163.492 144.226 C 162.487 142.239,161.583 140.542,161.483 140.456 C 161.383 140.369,160.897 139.167,160.403 137.785 C 159.909 136.402,159.329 134.988,159.113 134.643 C 158.898 134.297,158.418 132.742,158.046 131.186 C 157.367 128.346,156.778 126.630,156.483 126.630 C 156.395 126.630,156.305 126.312,156.283 125.923 C 156.260 125.534,156.083 123.943,155.889 122.388 C 155.165 116.573,155.066 114.957,155.337 113.354 C 155.423 112.842,155.340 112.490,155.133 112.490 C 154.892 112.490,154.901 112.373,155.161 112.113 C 155.368 111.906,155.538 111.070,155.538 110.255 C 155.538 107.459,156.414 103.695,157.783 100.615 C 158.112 99.873,158.606 98.707,158.879 98.023 C 159.153 97.339,159.488 96.779,159.623 96.779 C 159.758 96.779,159.950 96.458,160.048 96.066 C 160.225 95.361,160.478 94.937,163.660 90.024 C 166.483 85.664,166.913 85.046,168.630 82.892 C 169.552 81.735,170.306 80.709,170.306 80.614 C 170.306 80.518,170.801 79.910,171.405 79.262 C 172.009 78.614,173.624 76.798,174.993 75.227 C 178.196 71.551,185.690 63.998,189.317 60.789 C 190.872 59.413,192.215 58.215,192.302 58.126 C 192.440 57.984,195.385 55.564,196.229 54.898 C 199.778 52.100,203.101 49.647,203.342 49.647 C 203.512 49.647,203.563 49.505,203.456 49.332 C 203.350 49.159,203.420 49.018,203.612 49.018 C 203.997 49.018,207.104 46.958,208.289 45.917 C 208.700 45.556,209.159 45.337,209.310 45.430 C 209.461 45.523,209.584 45.463,209.584 45.296 C 209.584 45.019,210.649 44.322,214.491 42.084 C 215.253 41.640,215.781 41.180,215.663 41.062 C 215.545 40.945,215.673 40.848,215.947 40.848 C 216.220 40.848,216.491 40.742,216.549 40.613 C 216.606 40.483,217.290 40.057,218.068 39.665 C 220.037 38.674,221.941 37.584,222.991 36.846 C 223.480 36.502,224.583 35.913,225.441 35.537 C 226.299 35.161,227.076 34.753,227.169 34.630 C 227.261 34.507,227.973 34.089,228.751 33.702 C 229.529 33.314,230.377 32.864,230.636 32.702 C 231.758 32.003,237.744 29.220,238.125 29.221 C 238.356 29.222,238.493 29.070,238.432 28.885 C 238.370 28.699,238.231 28.593,238.124 28.649 C 238.017 28.705,237.651 28.499,237.311 28.191 C 236.971 27.884,236.426 27.568,236.100 27.489 C 233.878 26.955,233.358 26.768,233.936 26.709 C 234.467 26.656,234.442 26.611,233.778 26.421 C 233.346 26.298,232.946 26.311,232.889 26.450 C 232.832 26.589,232.580 26.498,232.330 26.248 C 232.080 25.997,231.667 25.872,231.413 25.970 C 231.159 26.068,230.951 26.009,230.951 25.839 C 230.951 25.669,230.517 25.444,229.987 25.338 C 229.457 25.232,229.099 25.022,229.192 24.872 C 229.285 24.722,229.011 24.667,228.584 24.748 C 228.115 24.838,227.808 24.750,227.808 24.527 C 227.808 24.324,227.658 24.251,227.473 24.365 C 227.289 24.479,226.925 24.310,226.664 23.991 C 226.404 23.671,226.295 23.610,226.423 23.856 C 226.597 24.191,226.466 24.171,225.905 23.778 C 225.085 23.203,224.201 23.067,224.507 23.563 C 224.617 23.741,224.491 23.794,224.211 23.686 C 223.943 23.583,223.723 23.373,223.723 23.219 C 223.723 23.064,223.511 22.938,223.252 22.938 C 222.993 22.938,222.781 22.812,222.781 22.657 C 222.781 22.503,222.561 22.293,222.293 22.190 C 221.995 22.075,221.886 22.132,222.012 22.336 C 222.155 22.568,222.040 22.574,221.635 22.356 C 221.147 22.092,220.335 21.755,219.639 21.527 C 219.552 21.498,218.953 21.365,218.306 21.229 C 217.659 21.094,217.207 20.859,217.301 20.708 C 217.395 20.556,217.251 20.516,216.980 20.620 C 216.710 20.724,216.278 20.634,216.021 20.421 C 215.646 20.110,215.553 20.118,215.549 20.464 C 215.545 20.789,215.484 20.801,215.301 20.512 C 215.005 20.047,213.042 19.329,211.228 19.023 C 210.406 18.884,209.974 18.669,210.102 18.462 C 210.222 18.269,210.161 18.219,209.959 18.344 C 209.767 18.463,209.356 18.415,209.047 18.238 C 207.937 17.602,204.424 16.988,204.171 17.385 C 204.014 17.634,203.936 17.587,203.933 17.243 C 203.928 16.794,202.404 16.163,201.650 16.297 C 201.520 16.320,201.414 16.174,201.414 15.973 C 201.414 15.771,201.325 15.695,201.217 15.803 C 201.109 15.912,200.551 15.804,199.978 15.565 C 199.406 15.326,198.893 15.259,198.840 15.416 C 198.787 15.574,198.337 15.492,197.840 15.234 C 197.343 14.976,196.235 14.734,195.378 14.697 C 194.520 14.660,193.972 14.578,194.160 14.515 C 194.348 14.453,194.501 14.276,194.501 14.124 C 194.501 13.971,194.300 13.922,194.054 14.017 C 193.809 14.111,193.299 14.023,192.922 13.821 C 192.544 13.619,191.720 13.392,191.090 13.315 C 189.688 13.145,189.142 13.029,188.531 12.771 C 188.133 12.603,186.745 12.370,185.546 12.271 C 185.373 12.257,185.444 12.108,185.703 11.940 C 186.095 11.687,186.069 11.631,185.546 11.609 C 185.200 11.595,184.493 11.522,183.975 11.447 C 183.456 11.373,182.516 11.276,181.886 11.233 C 181.255 11.190,180.794 11.065,180.861 10.954 C 181.041 10.659,178.226 10.292,177.800 10.556 C 177.574 10.695,177.521 10.643,177.660 10.418 C 177.784 10.218,177.700 10.033,177.473 10.007 C 177.247 9.981,176.921 9.942,176.748 9.920 C 176.575 9.899,176.257 9.771,176.042 9.636 C 175.826 9.501,174.872 9.363,173.921 9.330 C 172.971 9.297,172.193 9.147,172.192 8.997 C 172.192 8.847,171.909 8.799,171.563 8.889 C 171.218 8.980,170.935 8.925,170.935 8.769 C 170.935 8.612,170.448 8.484,169.854 8.484 C 169.259 8.484,168.680 8.334,168.567 8.151 C 168.435 7.939,168.218 8.013,167.968 8.354 C 167.607 8.849,167.562 8.838,167.400 8.216 C 167.302 7.845,167.060 7.541,166.861 7.541 C 166.662 7.541,166.573 7.662,166.665 7.810 C 166.756 7.958,166.483 8.012,166.059 7.931 C 165.634 7.850,165.364 7.658,165.458 7.505 C 165.553 7.352,165.092 7.201,164.433 7.169 C 163.775 7.137,162.950 7.094,162.600 7.074 C 162.250 7.054,161.769 6.917,161.530 6.769 C 161.210 6.572,161.167 6.617,161.363 6.943 C 161.589 7.318,161.549 7.320,161.101 6.956 C 160.787 6.701,160.258 6.608,159.792 6.724 C 159.140 6.888,159.045 6.830,159.219 6.367 C 159.393 5.902,159.349 5.876,158.946 6.203 C 158.682 6.418,158.385 6.513,158.286 6.414 C 158.188 6.316,157.706 6.175,157.215 6.101 C 156.725 6.028,155.899 5.893,155.381 5.803 C 154.863 5.712,153.802 5.609,153.024 5.573 C 152.247 5.538,151.529 5.397,151.430 5.260 C 151.206 4.952,149.789 4.742,146.770 4.569 C 145.490 4.496,144.355 4.294,144.248 4.120 C 144.137 3.941,143.870 3.916,143.633 4.063 C 143.185 4.340,142.027 4.151,142.027 3.801 C 142.027 3.686,141.567 3.569,141.005 3.542 C 140.444 3.515,139.525 3.416,138.963 3.323 C 138.274 3.209,137.940 3.280,137.937 3.541 C 137.934 3.809,137.847 3.793,137.655 3.489 C 137.497 3.241,137.152 3.137,136.857 3.250 C 136.547 3.369,136.417 3.322,136.534 3.132 C 136.650 2.945,136.366 2.827,135.844 2.844 C 135.356 2.860,134.674 2.810,134.328 2.734 C 133.983 2.657,133.550 2.713,133.367 2.857 C 133.081 3.083,131.858 2.869,130.086 2.283 C 129.518 2.094,126.253 1.839,123.596 1.775 C 122.533 1.749,121.728 1.622,121.808 1.493 C 121.888 1.363,121.812 1.257,121.640 1.257 C 121.467 1.257,121.234 1.405,121.122 1.586 C 120.983 1.811,120.775 1.797,120.467 1.542 C 120.219 1.336,119.927 1.257,119.817 1.366 C 119.708 1.476,119.405 1.390,119.145 1.176 C 118.768 0.865,118.645 0.866,118.540 1.180 C 118.466 1.397,118.242 1.472,118.041 1.347 C 117.839 1.221,117.251 1.094,116.732 1.064 C 116.214 1.033,114.906 0.929,113.826 0.831 C 112.401 0.702,111.860 0.758,111.857 1.034 C 111.854 1.296,111.781 1.308,111.621 1.072 C 111.494 0.884,110.545 0.699,109.512 0.661 C 108.479 0.622,107.573 0.529,107.499 0.455 C 107.424 0.381,107.174 0.477,106.942 0.670 C 106.630 0.928,106.400 0.920,106.060 0.637 C 105.740 0.372,104.540 0.289,102.132 0.367 C 100.225 0.429,98.665 0.387,98.665 0.275 C 98.665 0.020,95.276 0.176,94.423 0.471 C 93.916 0.646,93.886 0.622,94.266 0.349 C 94.647 0.074,94.568 0.009,93.854 0.005 C 93.231 0.001,93.041 0.115,93.208 0.393 C 93.390 0.696,93.330 0.694,92.948 0.384 C 92.276 -0.160,80.198 -0.132,79.521 0.415 C 79.163 0.704,79.114 0.699,79.298 0.393 C 79.583 -0.080,77.718 -0.157,76.999 0.298 C 76.748 0.457,76.397 0.497,76.218 0.387 C 75.708 0.072,74.676 0.054,74.102 0.352 C 73.777 0.520,73.536 0.497,73.467 0.292 C 73.407 0.110,73.265 0.052,73.154 0.164 M40.534 157.738 C 40.534 157.910,40.322 158.052,40.063 158.052 C 39.804 158.052,39.592 157.910,39.592 157.738 C 39.592 157.565,39.804 157.423,40.063 157.423 C 40.322 157.423,40.534 157.565,40.534 157.738 M38.083 158.115 C 37.790 158.408,37.622 158.408,37.329 158.115 C 37.036 157.821,37.120 157.738,37.706 157.738 C 38.293 157.738,38.377 157.821,38.083 158.115 M25.545 159.970 C 25.296 160.218,25.034 160.221,24.618 159.979 C 24.109 159.684,24.152 159.641,24.965 159.632 C 25.641 159.626,25.798 159.717,25.545 159.970 M17.439 160.880 C 17.546 161.053,17.334 161.194,16.968 161.194 C 16.602 161.194,16.390 161.053,16.496 160.880 C 16.603 160.707,16.815 160.566,16.968 160.566 C 17.120 160.566,17.332 160.707,17.439 160.880 M14.517 161.571 C 14.224 161.864,14.056 161.864,13.763 161.571 C 13.469 161.278,13.553 161.194,14.140 161.194 C 14.726 161.194,14.810 161.278,14.517 161.571 M11.940 161.822 C 11.940 161.995,11.728 162.137,11.469 162.137 C 11.210 162.137,10.998 161.995,10.998 161.822 C 10.998 161.650,11.210 161.508,11.469 161.508 C 11.728 161.508,11.940 161.650,11.940 161.822 M8.861 162.200 C 8.568 162.493,8.400 162.493,8.107 162.200 C 7.814 161.906,7.897 161.822,8.484 161.822 C 9.070 161.822,9.154 161.906,8.861 162.200 M5.970 162.451 C 5.970 162.624,5.758 162.765,5.499 162.765 C 5.240 162.765,5.027 162.624,5.027 162.451 C 5.027 162.278,5.240 162.137,5.499 162.137 C 5.758 162.137,5.970 162.278,5.970 162.451 M3.142 162.765 C 3.142 162.938,2.851 163.079,2.495 163.079 C 2.139 163.079,1.936 162.938,2.042 162.765 C 2.149 162.592,2.440 162.451,2.689 162.451 C 2.938 162.451,3.142 162.592,3.142 162.765 " stroke="none" fill="#5ce080" fill-rule="evenodd"></path><path id="path4" d="M73.154 0.164 C 73.042 0.276,71.452 0.365,69.620 0.363 C 67.143 0.359,66.347 0.453,66.512 0.729 C 66.668 0.988,66.590 0.983,66.253 0.710 C 65.988 0.495,65.700 0.391,65.612 0.478 C 65.525 0.565,64.407 0.661,63.128 0.690 C 61.848 0.720,60.625 0.876,60.408 1.039 C 60.160 1.225,60.016 1.220,60.016 1.024 C 60.016 0.854,59.698 0.748,59.309 0.788 C 58.920 0.829,58.063 0.880,57.405 0.903 C 56.747 0.925,56.278 1.056,56.363 1.194 C 56.449 1.332,56.174 1.445,55.753 1.445 C 55.333 1.445,54.986 1.297,54.983 1.115 C 54.980 0.899,54.899 0.894,54.748 1.100 C 54.621 1.273,53.881 1.421,53.103 1.430 C 51.281 1.451,48.622 1.873,48.282 2.195 C 48.136 2.333,47.647 2.254,47.194 2.019 C 46.608 1.715,46.309 1.692,46.157 1.939 C 46.039 2.130,45.574 2.215,45.124 2.129 C 44.673 2.043,44.305 2.090,44.305 2.233 C 44.305 2.377,44.069 2.404,43.782 2.293 C 43.494 2.183,43.340 2.223,43.438 2.382 C 43.541 2.547,42.824 2.649,41.762 2.620 C 40.741 2.593,39.906 2.664,39.906 2.779 C 39.906 2.894,38.889 3.024,37.645 3.067 C 36.261 3.115,35.289 3.297,35.136 3.536 C 34.968 3.802,34.886 3.812,34.883 3.568 C 34.880 3.317,34.534 3.286,33.740 3.465 C 33.115 3.606,32.383 3.637,32.115 3.534 C 31.738 3.390,31.680 3.485,31.857 3.952 C 32.022 4.385,31.991 4.460,31.747 4.219 C 31.401 3.876,29.537 3.991,29.537 4.356 C 29.537 4.466,29.006 4.573,28.358 4.594 C 26.003 4.671,22.792 5.069,22.631 5.304 C 22.541 5.437,21.875 5.528,21.152 5.506 C 20.083 5.473,19.806 5.583,19.673 6.093 C 19.510 6.715,19.502 6.715,18.813 6.110 C 18.430 5.774,18.215 5.667,18.335 5.873 C 18.470 6.105,18.342 6.238,17.996 6.224 C 17.690 6.212,17.086 6.290,16.654 6.397 C 16.222 6.504,15.444 6.683,14.925 6.795 C 14.407 6.906,13.819 7.126,13.618 7.284 C 13.395 7.460,13.179 7.453,13.064 7.265 C 12.945 7.072,12.506 7.065,11.878 7.245 C 11.330 7.402,10.820 7.468,10.743 7.391 C 10.666 7.315,10.184 7.469,9.672 7.734 C 9.159 7.999,8.659 8.135,8.559 8.036 C 8.460 7.937,8.568 7.855,8.798 7.855 C 9.029 7.855,9.141 7.779,9.048 7.687 C 8.839 7.477,7.227 8.189,7.227 8.491 C 7.227 8.612,6.873 8.643,6.440 8.560 C 6.007 8.478,5.414 8.603,5.122 8.840 C 4.686 9.193,4.638 9.194,4.848 8.845 C 5.055 8.501,4.977 8.489,4.430 8.781 C 4.060 8.979,3.613 9.052,3.436 8.943 C 3.259 8.833,2.942 8.887,2.732 9.062 C 2.521 9.236,1.927 9.425,1.410 9.481 C 0.894 9.538,0.367 9.725,0.240 9.898 C 0.114 10.071,0.007 78.614,0.005 162.215 L 0.000 314.218 195.837 314.213 L 391.673 314.207 390.102 313.343 C 387.994 312.183,376.841 306.677,376.599 306.677 C 376.493 306.677,376.236 306.534,376.028 306.358 C 375.819 306.182,373.244 304.818,370.306 303.327 C 359.995 298.092,352.463 294.136,352.239 293.839 C 352.152 293.724,351.304 293.279,350.353 292.849 C 349.403 292.419,348.484 291.916,348.311 291.731 C 348.138 291.546,347.361 291.123,346.583 290.792 C 345.805 290.460,344.933 289.975,344.644 289.713 C 344.355 289.452,343.401 288.959,342.523 288.619 C 341.645 288.278,340.927 287.891,340.927 287.758 C 340.927 287.625,340.043 287.085,338.963 286.559 C 337.883 286.032,336.151 285.120,335.114 284.532 C 334.077 283.944,332.634 283.168,331.907 282.807 C 331.180 282.446,330.401 281.978,330.176 281.767 C 329.951 281.555,328.920 280.958,327.884 280.440 C 326.849 279.921,325.931 279.418,325.844 279.322 C 325.758 279.225,325.051 278.787,324.273 278.349 C 323.496 277.911,321.189 276.576,319.146 275.383 C 317.104 274.189,314.684 272.789,313.767 272.270 C 312.851 271.752,311.906 271.168,311.667 270.972 C 311.428 270.777,310.526 270.238,309.662 269.774 C 306.446 268.050,305.259 267.334,305.033 266.979 C 304.906 266.778,304.799 266.713,304.797 266.835 C 304.794 266.956,303.735 266.355,302.442 265.499 C 301.150 264.644,300.008 263.943,299.903 263.943 C 299.799 263.943,298.968 263.449,298.057 262.844 C 297.146 262.239,296.238 261.744,296.040 261.744 C 295.842 261.744,295.679 261.603,295.679 261.430 C 295.679 261.257,295.532 261.115,295.352 261.115 C 295.172 261.115,294.854 260.970,294.645 260.792 C 294.296 260.495,291.615 258.783,286.165 255.377 C 283.239 253.548,277.763 250.008,275.030 248.179 C 273.783 247.344,272.617 246.661,272.438 246.661 C 272.259 246.661,272.113 246.516,272.113 246.337 C 272.113 246.159,271.866 245.925,271.563 245.817 C 271.261 245.710,270.140 245.007,269.072 244.256 C 268.004 243.505,267.043 242.891,266.937 242.891 C 266.831 242.891,266.363 242.537,265.897 242.105 C 265.431 241.673,264.921 241.320,264.763 241.320 C 264.494 241.320,263.299 240.486,260.555 238.383 C 259.913 237.891,259.007 237.290,258.542 237.049 C 258.077 236.807,256.451 235.695,254.928 234.577 C 253.406 233.459,251.689 232.222,251.113 231.826 C 250.537 231.431,249.163 230.436,248.061 229.615 C 246.958 228.794,245.980 228.123,245.887 228.123 C 245.795 228.123,245.445 227.875,245.111 227.573 C 244.777 227.270,243.964 226.630,243.305 226.150 C 242.645 225.669,241.090 224.503,239.850 223.557 C 238.610 222.612,237.443 221.838,237.258 221.838 C 237.072 221.838,236.921 221.715,236.921 221.565 C 236.921 221.414,235.683 220.375,234.171 219.255 C 231.004 216.911,227.313 213.967,226.383 213.046 C 226.032 212.697,225.582 212.412,225.385 212.412 C 225.187 212.412,224.766 212.081,224.448 211.677 C 224.130 211.272,223.712 210.884,223.520 210.813 C 223.145 210.674,220.627 208.595,218.512 206.677 C 217.797 206.029,217.112 205.499,216.991 205.499 C 216.869 205.499,216.413 205.075,215.977 204.556 C 215.541 204.038,215.041 203.614,214.866 203.614 C 214.692 203.614,214.159 203.225,213.682 202.749 C 213.205 202.274,211.922 201.108,210.830 200.157 C 201.507 192.042,187.628 178.165,182.247 171.577 C 181.642 170.836,180.758 169.837,180.283 169.357 C 179.808 168.876,179.419 168.392,179.419 168.281 C 179.419 168.170,178.502 166.953,177.382 165.576 C 176.261 164.200,175.095 162.686,174.791 162.213 C 174.486 161.739,173.427 160.268,172.439 158.945 C 171.450 157.622,170.389 156.123,170.081 155.615 C 169.773 155.106,169.249 154.280,168.916 153.779 C 166.927 150.780,165.814 148.819,163.492 144.226 C 162.487 142.239,161.583 140.542,161.483 140.456 C 161.383 140.369,160.897 139.167,160.403 137.785 C 159.909 136.402,159.329 134.988,159.113 134.643 C 158.898 134.297,158.418 132.742,158.046 131.186 C 157.367 128.346,156.778 126.630,156.483 126.630 C 156.395 126.630,156.305 126.312,156.283 125.923 C 156.260 125.534,156.083 123.943,155.889 122.388 C 155.165 116.573,155.066 114.957,155.337 113.354 C 155.423 112.842,155.340 112.490,155.133 112.490 C 154.892 112.490,154.901 112.373,155.161 112.113 C 155.368 111.906,155.538 111.070,155.538 110.255 C 155.538 107.459,156.414 103.695,157.783 100.615 C 158.112 99.873,158.606 98.707,158.879 98.023 C 159.153 97.339,159.488 96.779,159.623 96.779 C 159.758 96.779,159.950 96.458,160.048 96.066 C 160.225 95.361,160.478 94.937,163.660 90.024 C 166.483 85.664,166.913 85.046,168.630 82.892 C 169.552 81.735,170.306 80.709,170.306 80.614 C 170.306 80.518,170.801 79.910,171.405 79.262 C 172.009 78.614,173.624 76.798,174.993 75.227 C 178.196 71.551,185.690 63.998,189.317 60.789 C 190.872 59.413,192.215 58.215,192.302 58.126 C 192.440 57.984,195.385 55.564,196.229 54.898 C 199.778 52.100,203.101 49.647,203.342 49.647 C 203.512 49.647,203.563 49.505,203.456 49.332 C 203.350 49.159,203.420 49.018,203.612 49.018 C 203.997 49.018,207.104 46.958,208.289 45.917 C 208.700 45.556,209.159 45.337,209.310 45.430 C 209.461 45.523,209.584 45.463,209.584 45.296 C 209.584 45.019,210.649 44.322,214.491 42.084 C 215.253 41.640,215.781 41.180,215.663 41.062 C 215.545 40.945,215.673 40.848,215.947 40.848 C 216.220 40.848,216.491 40.742,216.549 40.613 C 216.606 40.483,217.290 40.057,218.068 39.665 C 220.037 38.674,221.941 37.584,222.991 36.846 C 223.480 36.502,224.583 35.913,225.441 35.537 C 226.299 35.161,227.076 34.753,227.169 34.630 C 227.261 34.507,227.973 34.089,228.751 33.702 C 229.529 33.314,230.377 32.864,230.636 32.702 C 231.758 32.003,237.744 29.220,238.125 29.221 C 238.356 29.222,238.493 29.070,238.432 28.885 C 238.370 28.699,238.231 28.593,238.124 28.649 C 238.017 28.705,237.651 28.499,237.311 28.191 C 236.971 27.884,236.426 27.568,236.100 27.489 C 233.878 26.955,233.358 26.768,233.936 26.709 C 234.467 26.656,234.442 26.611,233.778 26.421 C 233.346 26.298,232.946 26.311,232.889 26.450 C 232.832 26.589,232.580 26.498,232.330 26.248 C 232.080 25.997,231.667 25.872,231.413 25.970 C 231.159 26.068,230.951 26.009,230.951 25.839 C 230.951 25.669,230.517 25.444,229.987 25.338 C 229.457 25.232,229.099 25.022,229.192 24.872 C 229.285 24.722,229.011 24.667,228.584 24.748 C 228.115 24.838,227.808 24.750,227.808 24.527 C 227.808 24.324,227.658 24.251,227.473 24.365 C 227.289 24.479,226.925 24.310,226.664 23.991 C 226.404 23.671,226.295 23.610,226.423 23.856 C 226.597 24.191,226.466 24.171,225.905 23.778 C 225.085 23.203,224.201 23.067,224.507 23.563 C 224.617 23.741,224.491 23.794,224.211 23.686 C 223.943 23.583,223.723 23.373,223.723 23.219 C 223.723 23.064,223.511 22.938,223.252 22.938 C 222.993 22.938,222.781 22.812,222.781 22.657 C 222.781 22.503,222.561 22.293,222.293 22.190 C 221.995 22.075,221.886 22.132,222.012 22.336 C 222.155 22.568,222.040 22.574,221.635 22.356 C 221.147 22.092,220.335 21.755,219.639 21.527 C 219.552 21.498,218.953 21.365,218.306 21.229 C 217.659 21.094,217.207 20.859,217.301 20.708 C 217.395 20.556,217.251 20.516,216.980 20.620 C 216.710 20.724,216.278 20.634,216.021 20.421 C 215.646 20.110,215.553 20.118,215.549 20.464 C 215.545 20.789,215.484 20.801,215.301 20.512 C 215.005 20.047,213.042 19.329,211.228 19.023 C 210.406 18.884,209.974 18.669,210.102 18.462 C 210.222 18.269,210.161 18.219,209.959 18.344 C 209.767 18.463,209.356 18.415,209.047 18.238 C 207.937 17.602,204.424 16.988,204.171 17.385 C 204.014 17.634,203.936 17.587,203.933 17.243 C 203.928 16.794,202.404 16.163,201.650 16.297 C 201.520 16.320,201.414 16.174,201.414 15.973 C 201.414 15.771,201.325 15.695,201.217 15.803 C 201.109 15.912,200.551 15.804,199.978 15.565 C 199.406 15.326,198.893 15.259,198.840 15.416 C 198.787 15.574,198.337 15.492,197.840 15.234 C 197.343 14.976,196.235 14.734,195.378 14.697 C 194.520 14.660,193.972 14.578,194.160 14.515 C 194.348 14.453,194.501 14.276,194.501 14.124 C 194.501 13.971,194.300 13.922,194.054 14.017 C 193.809 14.111,193.299 14.023,192.922 13.821 C 192.544 13.619,191.720 13.392,191.090 13.315 C 189.688 13.145,189.142 13.029,188.531 12.771 C 188.133 12.603,186.745 12.370,185.546 12.271 C 185.373 12.257,185.444 12.108,185.703 11.940 C 186.095 11.687,186.069 11.631,185.546 11.609 C 185.200 11.595,184.493 11.522,183.975 11.447 C 183.456 11.373,182.516 11.276,181.886 11.233 C 181.255 11.190,180.794 11.065,180.861 10.954 C 181.041 10.659,178.226 10.292,177.800 10.556 C 177.574 10.695,177.521 10.643,177.660 10.418 C 177.784 10.218,177.700 10.033,177.473 10.007 C 177.247 9.981,176.921 9.942,176.748 9.920 C 176.575 9.899,176.257 9.771,176.042 9.636 C 175.826 9.501,174.872 9.363,173.921 9.330 C 172.971 9.297,172.193 9.147,172.192 8.997 C 172.192 8.847,171.909 8.799,171.563 8.889 C 171.218 8.980,170.935 8.925,170.935 8.769 C 170.935 8.612,170.448 8.484,169.854 8.484 C 169.259 8.484,168.680 8.334,168.567 8.151 C 168.435 7.939,168.218 8.013,167.968 8.354 C 167.607 8.849,167.562 8.838,167.400 8.216 C 167.302 7.845,167.060 7.541,166.861 7.541 C 166.662 7.541,166.573 7.662,166.665 7.810 C 166.756 7.958,166.483 8.012,166.059 7.931 C 165.634 7.850,165.364 7.658,165.458 7.505 C 165.553 7.352,165.092 7.201,164.433 7.169 C 163.775 7.137,162.950 7.094,162.600 7.074 C 162.250 7.054,161.769 6.917,161.530 6.769 C 161.210 6.572,161.167 6.617,161.363 6.943 C 161.589 7.318,161.549 7.320,161.101 6.956 C 160.787 6.701,160.258 6.608,159.792 6.724 C 159.140 6.888,159.045 6.830,159.219 6.367 C 159.393 5.902,159.349 5.876,158.946 6.203 C 158.682 6.418,158.385 6.513,158.286 6.414 C 158.188 6.316,157.706 6.175,157.215 6.101 C 156.725 6.028,155.899 5.893,155.381 5.803 C 154.863 5.712,153.802 5.609,153.024 5.573 C 152.247 5.538,151.529 5.397,151.430 5.260 C 151.206 4.952,149.789 4.742,146.770 4.569 C 145.490 4.496,144.355 4.294,144.248 4.120 C 144.137 3.941,143.870 3.916,143.633 4.063 C 143.185 4.340,142.027 4.151,142.027 3.801 C 142.027 3.686,141.567 3.569,141.005 3.542 C 140.444 3.515,139.525 3.416,138.963 3.323 C 138.274 3.209,137.940 3.280,137.937 3.541 C 137.934 3.809,137.847 3.793,137.655 3.489 C 137.497 3.241,137.152 3.137,136.857 3.250 C 136.547 3.369,136.417 3.322,136.534 3.132 C 136.650 2.945,136.366 2.827,135.844 2.844 C 135.356 2.860,134.674 2.810,134.328 2.734 C 133.983 2.657,133.550 2.713,133.367 2.857 C 133.081 3.083,131.858 2.869,130.086 2.283 C 129.518 2.094,126.253 1.839,123.596 1.775 C 122.533 1.749,121.728 1.622,121.808 1.493 C 121.888 1.363,121.812 1.257,121.640 1.257 C 121.467 1.257,121.234 1.405,121.122 1.586 C 120.983 1.811,120.775 1.797,120.467 1.542 C 120.219 1.336,119.927 1.257,119.817 1.366 C 119.708 1.476,119.405 1.390,119.145 1.176 C 118.768 0.865,118.645 0.866,118.540 1.180 C 118.466 1.397,118.242 1.472,118.041 1.347 C 117.839 1.221,117.251 1.094,116.732 1.064 C 116.214 1.033,114.906 0.929,113.826 0.831 C 112.401 0.702,111.860 0.758,111.857 1.034 C 111.854 1.296,111.781 1.308,111.621 1.072 C 111.494 0.884,110.545 0.699,109.512 0.661 C 108.479 0.622,107.573 0.529,107.499 0.455 C 107.424 0.381,107.174 0.477,106.942 0.670 C 106.630 0.928,106.400 0.920,106.060 0.637 C 105.740 0.372,104.540 0.289,102.132 0.367 C 100.225 0.429,98.665 0.387,98.665 0.275 C 98.665 0.020,95.276 0.176,94.423 0.471 C 93.916 0.646,93.886 0.622,94.266 0.349 C 94.647 0.074,94.568 0.009,93.854 0.005 C 93.231 0.001,93.041 0.115,93.208 0.393 C 93.390 0.696,93.330 0.694,92.948 0.384 C 92.276 -0.160,80.198 -0.132,79.521 0.415 C 79.163 0.704,79.114 0.699,79.298 0.393 C 79.583 -0.080,77.718 -0.157,76.999 0.298 C 76.748 0.457,76.397 0.497,76.218 0.387 C 75.708 0.072,74.676 0.054,74.102 0.352 C 73.777 0.520,73.536 0.497,73.467 0.292 C 73.407 0.110,73.265 0.052,73.154 0.164 M40.534 157.738 C 40.534 157.910,40.322 158.052,40.063 158.052 C 39.804 158.052,39.592 157.910,39.592 157.738 C 39.592 157.565,39.804 157.423,40.063 157.423 C 40.322 157.423,40.534 157.565,40.534 157.738 M38.083 158.115 C 37.790 158.408,37.622 158.408,37.329 158.115 C 37.036 157.821,37.120 157.738,37.706 157.738 C 38.293 157.738,38.377 157.821,38.083 158.115 M25.545 159.970 C 25.296 160.218,25.034 160.221,24.618 159.979 C 24.109 159.684,24.152 159.641,24.965 159.632 C 25.641 159.626,25.798 159.717,25.545 159.970 M17.439 160.880 C 17.546 161.053,17.334 161.194,16.968 161.194 C 16.602 161.194,16.390 161.053,16.496 160.880 C 16.603 160.707,16.815 160.566,16.968 160.566 C 17.120 160.566,17.332 160.707,17.439 160.880 M14.517 161.571 C 14.224 161.864,14.056 161.864,13.763 161.571 C 13.469 161.278,13.553 161.194,14.140 161.194 C 14.726 161.194,14.810 161.278,14.517 161.571 M11.940 161.822 C 11.940 161.995,11.728 162.137,11.469 162.137 C 11.210 162.137,10.998 161.995,10.998 161.822 C 10.998 161.650,11.210 161.508,11.469 161.508 C 11.728 161.508,11.940 161.650,11.940 161.822 M8.861 162.200 C 8.568 162.493,8.400 162.493,8.107 162.200 C 7.814 161.906,7.897 161.822,8.484 161.822 C 9.070 161.822,9.154 161.906,8.861 162.200 M5.970 162.451 C 5.970 162.624,5.758 162.765,5.499 162.765 C 5.240 162.765,5.027 162.624,5.027 162.451 C 5.027 162.278,5.240 162.137,5.499 162.137 C 5.758 162.137,5.970 162.278,5.970 162.451 M3.142 162.765 C 3.142 162.938,2.851 163.079,2.495 163.079 C 2.139 163.079,1.936 162.938,2.042 162.765 C 2.149 162.592,2.440 162.451,2.689 162.451 C 2.938 162.451,3.142 162.592,3.142 162.765 " stroke="none" fill="#5ce080" fill-rule="evenodd"></path><path id="path5" d="M73.154 0.164 C 73.042 0.276,71.452 0.365,69.620 0.363 C 67.143 0.359,66.347 0.453,66.512 0.729 C 66.668 0.988,66.590 0.983,66.253 0.710 C 65.988 0.495,65.700 0.391,65.612 0.478 C 65.525 0.565,64.407 0.661,63.128 0.690 C 61.848 0.720,60.625 0.876,60.408 1.039 C 60.160 1.225,60.016 1.220,60.016 1.024 C 60.016 0.854,59.698 0.748,59.309 0.788 C 58.920 0.829,58.063 0.880,57.405 0.903 C 56.747 0.925,56.278 1.056,56.363 1.194 C 56.449 1.332,56.174 1.445,55.753 1.445 C 55.333 1.445,54.986 1.297,54.983 1.115 C 54.980 0.899,54.899 0.894,54.748 1.100 C 54.621 1.273,53.881 1.421,53.103 1.430 C 51.281 1.451,48.622 1.873,48.282 2.195 C 48.136 2.333,47.647 2.254,47.194 2.019 C 46.608 1.715,46.309 1.692,46.157 1.939 C 46.039 2.130,45.574 2.215,45.124 2.129 C 44.673 2.043,44.305 2.090,44.305 2.233 C 44.305 2.377,44.069 2.404,43.782 2.293 C 43.494 2.183,43.340 2.223,43.438 2.382 C 43.541 2.547,42.824 2.649,41.762 2.620 C 40.741 2.593,39.906 2.664,39.906 2.779 C 39.906 2.894,38.889 3.024,37.645 3.067 C 36.261 3.115,35.289 3.297,35.136 3.536 C 34.968 3.802,34.886 3.812,34.883 3.568 C 34.880 3.317,34.534 3.286,33.740 3.465 C 33.115 3.606,32.383 3.637,32.115 3.534 C 31.738 3.390,31.680 3.485,31.857 3.952 C 32.022 4.385,31.991 4.460,31.747 4.219 C 31.401 3.876,29.537 3.991,29.537 4.356 C 29.537 4.466,29.006 4.573,28.358 4.594 C 26.003 4.671,22.792 5.069,22.631 5.304 C 22.541 5.437,21.875 5.528,21.152 5.506 C 20.083 5.473,19.806 5.583,19.673 6.093 C 19.510 6.715,19.502 6.715,18.813 6.110 C 18.430 5.774,18.215 5.667,18.335 5.873 C 18.470 6.105,18.342 6.238,17.996 6.224 C 17.690 6.212,17.086 6.290,16.654 6.397 C 16.222 6.504,15.444 6.683,14.925 6.795 C 14.407 6.906,13.819 7.126,13.618 7.284 C 13.395 7.460,13.179 7.453,13.064 7.265 C 12.945 7.072,12.506 7.065,11.878 7.245 C 11.330 7.402,10.820 7.468,10.743 7.391 C 10.666 7.315,10.184 7.469,9.672 7.734 C 9.159 7.999,8.659 8.135,8.559 8.036 C 8.460 7.937,8.568 7.855,8.798 7.855 C 9.029 7.855,9.141 7.779,9.048 7.687 C 8.839 7.477,7.227 8.189,7.227 8.491 C 7.227 8.612,6.873 8.643,6.440 8.560 C 6.007 8.478,5.414 8.603,5.122 8.840 C 4.686 9.193,4.638 9.194,4.848 8.845 C 5.055 8.501,4.977 8.489,4.430 8.781 C 4.060 8.979,3.613 9.052,3.436 8.943 C 3.259 8.833,2.942 8.887,2.732 9.062 C 2.521 9.236,1.927 9.425,1.410 9.481 C 0.894 9.538,0.367 9.725,0.240 9.898 C 0.114 10.071,0.007 78.614,0.005 162.215 L 0.000 314.218 195.837 314.213 L 391.673 314.207 390.102 313.343 C 387.994 312.183,376.841 306.677,376.599 306.677 C 376.493 306.677,376.236 306.534,376.028 306.358 C 375.819 306.182,373.244 304.818,370.306 303.327 C 359.995 298.092,352.463 294.136,352.239 293.839 C 352.152 293.724,351.304 293.279,350.353 292.849 C 349.403 292.419,348.484 291.916,348.311 291.731 C 348.138 291.546,347.361 291.123,346.583 290.792 C 345.805 290.460,344.933 289.975,344.644 289.713 C 344.355 289.452,343.401 288.959,342.523 288.619 C 341.645 288.278,340.927 287.891,340.927 287.758 C 340.927 287.625,340.043 287.085,338.963 286.559 C 337.883 286.032,336.151 285.120,335.114 284.532 C 334.077 283.944,332.634 283.168,331.907 282.807 C 331.180 282.446,330.401 281.978,330.176 281.767 C 329.951 281.555,328.920 280.958,327.884 280.440 C 326.849 279.921,325.931 279.418,325.844 279.322 C 325.758 279.225,325.051 278.787,324.273 278.349 C 323.496 277.911,321.189 276.576,319.146 275.383 C 317.104 274.189,314.684 272.789,313.767 272.270 C 312.851 271.752,311.906 271.168,311.667 270.972 C 311.428 270.777,310.526 270.238,309.662 269.774 C 306.446 268.050,305.259 267.334,305.033 266.979 C 304.906 266.778,304.799 266.713,304.797 266.835 C 304.794 266.956,303.735 266.355,302.442 265.499 C 301.150 264.644,300.008 263.943,299.903 263.943 C 299.799 263.943,298.968 263.449,298.057 262.844 C 297.146 262.239,296.238 261.744,296.040 261.744 C 295.842 261.744,295.679 261.603,295.679 261.430 C 295.679 261.257,295.532 261.115,295.352 261.115 C 295.172 261.115,294.854 260.970,294.645 260.792 C 294.296 260.495,291.615 258.783,286.165 255.377 C 283.239 253.548,277.763 250.008,275.030 248.179 C 273.783 247.344,272.617 246.661,272.438 246.661 C 272.259 246.661,272.113 246.516,272.113 246.337 C 272.113 246.159,271.866 245.925,271.563 245.817 C 271.261 245.710,270.140 245.007,269.072 244.256 C 268.004 243.505,267.043 242.891,266.937 242.891 C 266.831 242.891,266.363 242.537,265.897 242.105 C 265.431 241.673,264.921 241.320,264.763 241.320 C 264.494 241.320,263.299 240.486,260.555 238.383 C 259.913 237.891,259.007 237.290,258.542 237.049 C 258.077 236.807,256.451 235.695,254.928 234.577 C 253.406 233.459,251.689 232.222,251.113 231.826 C 250.537 231.431,249.163 230.436,248.061 229.615 C 246.958 228.794,245.980 228.123,245.887 228.123 C 245.795 228.123,245.445 227.875,245.111 227.573 C 244.777 227.270,243.964 226.630,243.305 226.150 C 242.645 225.669,241.090 224.503,239.850 223.557 C 238.610 222.612,237.443 221.838,237.258 221.838 C 237.072 221.838,236.921 221.715,236.921 221.565 C 236.921 221.414,235.683 220.375,234.171 219.255 C 231.004 216.911,227.313 213.967,226.383 213.046 C 226.032 212.697,225.582 212.412,225.385 212.412 C 225.187 212.412,224.766 212.081,224.448 211.677 C 224.130 211.272,223.712 210.884,223.520 210.813 C 223.145 210.674,220.627 208.595,218.512 206.677 C 217.797 206.029,217.112 205.499,216.991 205.499 C 216.869 205.499,216.413 205.075,215.977 204.556 C 215.541 204.038,215.041 203.614,214.866 203.614 C 214.692 203.614,214.159 203.225,213.682 202.749 C 213.205 202.274,211.922 201.108,210.830 200.157 C 201.507 192.042,187.628 178.165,182.247 171.577 C 181.642 170.836,180.758 169.837,180.283 169.357 C 179.808 168.876,179.419 168.392,179.419 168.281 C 179.419 168.170,178.502 166.953,177.382 165.576 C 176.261 164.200,175.095 162.686,174.791 162.213 C 174.486 161.739,173.427 160.268,172.439 158.945 C 171.450 157.622,170.389 156.123,170.081 155.615 C 169.773 155.106,169.249 154.280,168.916 153.779 C 166.927 150.780,165.814 148.819,163.492 144.226 C 162.487 142.239,161.583 140.542,161.483 140.456 C 161.383 140.369,160.897 139.167,160.403 137.785 C 159.909 136.402,159.329 134.988,159.113 134.643 C 158.898 134.297,158.418 132.742,158.046 131.186 C 157.367 128.346,156.778 126.630,156.483 126.630 C 156.395 126.630,156.305 126.312,156.283 125.923 C 156.260 125.534,156.083 123.943,155.889 122.388 C 155.165 116.573,155.066 114.957,155.337 113.354 C 155.423 112.842,155.340 112.490,155.133 112.490 C 154.892 112.490,154.901 112.373,155.161 112.113 C 155.368 111.906,155.538 111.070,155.538 110.255 C 155.538 107.459,156.414 103.695,157.783 100.615 C 158.112 99.873,158.606 98.707,158.879 98.023 C 159.153 97.339,159.488 96.779,159.623 96.779 C 159.758 96.779,159.950 96.458,160.048 96.066 C 160.225 95.361,160.478 94.937,163.660 90.024 C 166.483 85.664,166.913 85.046,168.630 82.892 C 169.552 81.735,170.306 80.709,170.306 80.614 C 170.306 80.518,170.801 79.910,171.405 79.262 C 172.009 78.614,173.624 76.798,174.993 75.227 C 178.196 71.551,185.690 63.998,189.317 60.789 C 190.872 59.413,192.215 58.215,192.302 58.126 C 192.440 57.984,195.385 55.564,196.229 54.898 C 199.778 52.100,203.101 49.647,203.342 49.647 C 203.512 49.647,203.563 49.505,203.456 49.332 C 203.350 49.159,203.420 49.018,203.612 49.018 C 203.997 49.018,207.104 46.958,208.289 45.917 C 208.700 45.556,209.159 45.337,209.310 45.430 C 209.461 45.523,209.584 45.463,209.584 45.296 C 209.584 45.019,210.649 44.322,214.491 42.084 C 215.253 41.640,215.781 41.180,215.663 41.062 C 215.545 40.945,215.673 40.848,215.947 40.848 C 216.220 40.848,216.491 40.742,216.549 40.613 C 216.606 40.483,217.290 40.057,218.068 39.665 C 220.037 38.674,221.941 37.584,222.991 36.846 C 223.480 36.502,224.583 35.913,225.441 35.537 C 226.299 35.161,227.076 34.753,227.169 34.630 C 227.261 34.507,227.973 34.089,228.751 33.702 C 229.529 33.314,230.377 32.864,230.636 32.702 C 231.758 32.003,237.744 29.220,238.125 29.221 C 238.356 29.222,238.493 29.070,238.432 28.885 C 238.370 28.699,238.231 28.593,238.124 28.649 C 238.017 28.705,237.651 28.499,237.311 28.191 C 236.971 27.884,236.426 27.568,236.100 27.489 C 233.878 26.955,233.358 26.768,233.936 26.709 C 234.467 26.656,234.442 26.611,233.778 26.421 C 233.346 26.298,232.946 26.311,232.889 26.450 C 232.832 26.589,232.580 26.498,232.330 26.248 C 232.080 25.997,231.667 25.872,231.413 25.970 C 231.159 26.068,230.951 26.009,230.951 25.839 C 230.951 25.669,230.517 25.444,229.987 25.338 C 229.457 25.232,229.099 25.022,229.192 24.872 C 229.285 24.722,229.011 24.667,228.584 24.748 C 228.115 24.838,227.808 24.750,227.808 24.527 C 227.808 24.324,227.658 24.251,227.473 24.365 C 227.289 24.479,226.925 24.310,226.664 23.991 C 226.404 23.671,226.295 23.610,226.423 23.856 C 226.597 24.191,226.466 24.171,225.905 23.778 C 225.085 23.203,224.201 23.067,224.507 23.563 C 224.617 23.741,224.491 23.794,224.211 23.686 C 223.943 23.583,223.723 23.373,223.723 23.219 C 223.723 23.064,223.511 22.938,223.252 22.938 C 222.993 22.938,222.781 22.812,222.781 22.657 C 222.781 22.503,222.561 22.293,222.293 22.190 C 221.995 22.075,221.886 22.132,222.012 22.336 C 222.155 22.568,222.040 22.574,221.635 22.356 C 221.147 22.092,220.335 21.755,219.639 21.527 C 219.552 21.498,218.953 21.365,218.306 21.229 C 217.659 21.094,217.207 20.859,217.301 20.708 C 217.395 20.556,217.251 20.516,216.980 20.620 C 216.710 20.724,216.278 20.634,216.021 20.421 C 215.646 20.110,215.553 20.118,215.549 20.464 C 215.545 20.789,215.484 20.801,215.301 20.512 C 215.005 20.047,213.042 19.329,211.228 19.023 C 210.406 18.884,209.974 18.669,210.102 18.462 C 210.222 18.269,210.161 18.219,209.959 18.344 C 209.767 18.463,209.356 18.415,209.047 18.238 C 207.937 17.602,204.424 16.988,204.171 17.385 C 204.014 17.634,203.936 17.587,203.933 17.243 C 203.928 16.794,202.404 16.163,201.650 16.297 C 201.520 16.320,201.414 16.174,201.414 15.973 C 201.414 15.771,201.325 15.695,201.217 15.803 C 201.109 15.912,200.551 15.804,199.978 15.565 C 199.406 15.326,198.893 15.259,198.840 15.416 C 198.787 15.574,198.337 15.492,197.840 15.234 C 197.343 14.976,196.235 14.734,195.378 14.697 C 194.520 14.660,193.972 14.578,194.160 14.515 C 194.348 14.453,194.501 14.276,194.501 14.124 C 194.501 13.971,194.300 13.922,194.054 14.017 C 193.809 14.111,193.299 14.023,192.922 13.821 C 192.544 13.619,191.720 13.392,191.090 13.315 C 189.688 13.145,189.142 13.029,188.531 12.771 C 188.133 12.603,186.745 12.370,185.546 12.271 C 185.373 12.257,185.444 12.108,185.703 11.940 C 186.095 11.687,186.069 11.631,185.546 11.609 C 185.200 11.595,184.493 11.522,183.975 11.447 C 183.456 11.373,182.516 11.276,181.886 11.233 C 181.255 11.190,180.794 11.065,180.861 10.954 C 181.041 10.659,178.226 10.292,177.800 10.556 C 177.574 10.695,177.521 10.643,177.660 10.418 C 177.784 10.218,177.700 10.033,177.473 10.007 C 177.247 9.981,176.921 9.942,176.748 9.920 C 176.575 9.899,176.257 9.771,176.042 9.636 C 175.826 9.501,174.872 9.363,173.921 9.330 C 172.971 9.297,172.193 9.147,172.192 8.997 C 172.192 8.847,171.909 8.799,171.563 8.889 C 171.218 8.980,170.935 8.925,170.935 8.769 C 170.935 8.612,170.448 8.484,169.854 8.484 C 169.259 8.484,168.680 8.334,168.567 8.151 C 168.435 7.939,168.218 8.013,167.968 8.354 C 167.607 8.849,167.562 8.838,167.400 8.216 C 167.302 7.845,167.060 7.541,166.861 7.541 C 166.662 7.541,166.573 7.662,166.665 7.810 C 166.756 7.958,166.483 8.012,166.059 7.931 C 165.634 7.850,165.364 7.658,165.458 7.505 C 165.553 7.352,165.092 7.201,164.433 7.169 C 163.775 7.137,162.950 7.094,162.600 7.074 C 162.250 7.054,161.769 6.917,161.530 6.769 C 161.210 6.572,161.167 6.617,161.363 6.943 C 161.589 7.318,161.549 7.320,161.101 6.956 C 160.787 6.701,160.258 6.608,159.792 6.724 C 159.140 6.888,159.045 6.830,159.219 6.367 C 159.393 5.902,159.349 5.876,158.946 6.203 C 158.682 6.418,158.385 6.513,158.286 6.414 C 158.188 6.316,157.706 6.175,157.215 6.101 C 156.725 6.028,155.899 5.893,155.381 5.803 C 154.863 5.712,153.802 5.609,153.024 5.573 C 152.247 5.538,151.529 5.397,151.430 5.260 C 151.206 4.952,149.789 4.742,146.770 4.569 C 145.490 4.496,144.355 4.294,144.248 4.120 C 144.137 3.941,143.870 3.916,143.633 4.063 C 143.185 4.340,142.027 4.151,142.027 3.801 C 142.027 3.686,141.567 3.569,141.005 3.542 C 140.444 3.515,139.525 3.416,138.963 3.323 C 138.274 3.209,137.940 3.280,137.937 3.541 C 137.934 3.809,137.847 3.793,137.655 3.489 C 137.497 3.241,137.152 3.137,136.857 3.250 C 136.547 3.369,136.417 3.322,136.534 3.132 C 136.650 2.945,136.366 2.827,135.844 2.844 C 135.356 2.860,134.674 2.810,134.328 2.734 C 133.983 2.657,133.550 2.713,133.367 2.857 C 133.081 3.083,131.858 2.869,130.086 2.283 C 129.518 2.094,126.253 1.839,123.596 1.775 C 122.533 1.749,121.728 1.622,121.808 1.493 C 121.888 1.363,121.812 1.257,121.640 1.257 C 121.467 1.257,121.234 1.405,121.122 1.586 C 120.983 1.811,120.775 1.797,120.467 1.542 C 120.219 1.336,119.927 1.257,119.817 1.366 C 119.708 1.476,119.405 1.390,119.145 1.176 C 118.768 0.865,118.645 0.866,118.540 1.180 C 118.466 1.397,118.242 1.472,118.041 1.347 C 117.839 1.221,117.251 1.094,116.732 1.064 C 116.214 1.033,114.906 0.929,113.826 0.831 C 112.401 0.702,111.860 0.758,111.857 1.034 C 111.854 1.296,111.781 1.308,111.621 1.072 C 111.494 0.884,110.545 0.699,109.512 0.661 C 108.479 0.622,107.573 0.529,107.499 0.455 C 107.424 0.381,107.174 0.477,106.942 0.670 C 106.630 0.928,106.400 0.920,106.060 0.637 C 105.740 0.372,104.540 0.289,102.132 0.367 C 100.225 0.429,98.665 0.387,98.665 0.275 C 98.665 0.020,95.276 0.176,94.423 0.471 C 93.916 0.646,93.886 0.622,94.266 0.349 C 94.647 0.074,94.568 0.009,93.854 0.005 C 93.231 0.001,93.041 0.115,93.208 0.393 C 93.390 0.696,93.330 0.694,92.948 0.384 C 92.276 -0.160,80.198 -0.132,79.521 0.415 C 79.163 0.704,79.114 0.699,79.298 0.393 C 79.583 -0.080,77.718 -0.157,76.999 0.298 C 76.748 0.457,76.397 0.497,76.218 0.387 C 75.708 0.072,74.676 0.054,74.102 0.352 C 73.777 0.520,73.536 0.497,73.467 0.292 C 73.407 0.110,73.265 0.052,73.154 0.164 M40.534 157.738 C 40.534 157.910,40.322 158.052,40.063 158.052 C 39.804 158.052,39.592 157.910,39.592 157.738 C 39.592 157.565,39.804 157.423,40.063 157.423 C 40.322 157.423,40.534 157.565,40.534 157.738 M38.083 158.115 C 37.790 158.408,37.622 158.408,37.329 158.115 C 37.036 157.821,37.120 157.738,37.706 157.738 C 38.293 157.738,38.377 157.821,38.083 158.115 M25.545 159.970 C 25.296 160.218,25.034 160.221,24.618 159.979 C 24.109 159.684,24.152 159.641,24.965 159.632 C 25.641 159.626,25.798 159.717,25.545 159.970 M17.439 160.880 C 17.546 161.053,17.334 161.194,16.968 161.194 C 16.602 161.194,16.390 161.053,16.496 160.880 C 16.603 160.707,16.815 160.566,16.968 160.566 C 17.120 160.566,17.332 160.707,17.439 160.880 M14.517 161.571 C 14.224 161.864,14.056 161.864,13.763 161.571 C 13.469 161.278,13.553 161.194,14.140 161.194 C 14.726 161.194,14.810 161.278,14.517 161.571 M11.940 161.822 C 11.940 161.995,11.728 162.137,11.469 162.137 C 11.210 162.137,10.998 161.995,10.998 161.822 C 10.998 161.650,11.210 161.508,11.469 161.508 C 11.728 161.508,11.940 161.650,11.940 161.822 M8.861 162.200 C 8.568 162.493,8.400 162.493,8.107 162.200 C 7.814 161.906,7.897 161.822,8.484 161.822 C 9.070 161.822,9.154 161.906,8.861 162.200 M5.970 162.451 C 5.970 162.624,5.758 162.765,5.499 162.765 C 5.240 162.765,5.027 162.624,5.027 162.451 C 5.027 162.278,5.240 162.137,5.499 162.137 C 5.758 162.137,5.970 162.278,5.970 162.451 M3.142 162.765 C 3.142 162.938,2.851 163.079,2.495 163.079 C 2.139 163.079,1.936 162.938,2.042 162.765 C 2.149 162.592,2.440 162.451,2.689 162.451 C 2.938 162.451,3.142 162.592,3.142 162.765 " stroke="none" fill="#5ce080" fill-rule="evenodd"></path><path id="path6" d="M73.154 0.164 C 73.042 0.276,71.452 0.365,69.620 0.363 C 67.143 0.359,66.347 0.453,66.512 0.729 C 66.668 0.988,66.590 0.983,66.253 0.710 C 65.988 0.495,65.700 0.391,65.612 0.478 C 65.525 0.565,64.407 0.661,63.128 0.690 C 61.848 0.720,60.625 0.876,60.408 1.039 C 60.160 1.225,60.016 1.220,60.016 1.024 C 60.016 0.854,59.698 0.748,59.309 0.788 C 58.920 0.829,58.063 0.880,57.405 0.903 C 56.747 0.925,56.278 1.056,56.363 1.194 C 56.449 1.332,56.174 1.445,55.753 1.445 C 55.333 1.445,54.986 1.297,54.983 1.115 C 54.980 0.899,54.899 0.894,54.748 1.100 C 54.621 1.273,53.881 1.421,53.103 1.430 C 51.281 1.451,48.622 1.873,48.282 2.195 C 48.136 2.333,47.647 2.254,47.194 2.019 C 46.608 1.715,46.309 1.692,46.157 1.939 C 46.039 2.130,45.574 2.215,45.124 2.129 C 44.673 2.043,44.305 2.090,44.305 2.233 C 44.305 2.377,44.069 2.404,43.782 2.293 C 43.494 2.183,43.340 2.223,43.438 2.382 C 43.541 2.547,42.824 2.649,41.762 2.620 C 40.741 2.593,39.906 2.664,39.906 2.779 C 39.906 2.894,38.889 3.024,37.645 3.067 C 36.261 3.115,35.289 3.297,35.136 3.536 C 34.968 3.802,34.886 3.812,34.883 3.568 C 34.880 3.317,34.534 3.286,33.740 3.465 C 33.115 3.606,32.383 3.637,32.115 3.534 C 31.738 3.390,31.680 3.485,31.857 3.952 C 32.022 4.385,31.991 4.460,31.747 4.219 C 31.401 3.876,29.537 3.991,29.537 4.356 C 29.537 4.466,29.006 4.573,28.358 4.594 C 26.003 4.671,22.792 5.069,22.631 5.304 C 22.541 5.437,21.875 5.528,21.152 5.506 C 20.083 5.473,19.806 5.583,19.673 6.093 C 19.510 6.715,19.502 6.715,18.813 6.110 C 18.430 5.774,18.215 5.667,18.335 5.873 C 18.470 6.105,18.342 6.238,17.996 6.224 C 17.690 6.212,17.086 6.290,16.654 6.397 C 16.222 6.504,15.444 6.683,14.925 6.795 C 14.407 6.906,13.819 7.126,13.618 7.284 C 13.395 7.460,13.179 7.453,13.064 7.265 C 12.945 7.072,12.506 7.065,11.878 7.245 C 11.330 7.402,10.820 7.468,10.743 7.391 C 10.666 7.315,10.184 7.469,9.672 7.734 C 9.159 7.999,8.659 8.135,8.559 8.036 C 8.460 7.937,8.568 7.855,8.798 7.855 C 9.029 7.855,9.141 7.779,9.048 7.687 C 8.839 7.477,7.227 8.189,7.227 8.491 C 7.227 8.612,6.873 8.643,6.440 8.560 C 6.007 8.478,5.414 8.603,5.122 8.840 C 4.686 9.193,4.638 9.194,4.848 8.845 C 5.055 8.501,4.977 8.489,4.430 8.781 C 4.060 8.979,3.613 9.052,3.436 8.943 C 3.259 8.833,2.942 8.887,2.732 9.062 C 2.521 9.236,1.927 9.425,1.410 9.481 C 0.894 9.538,0.367 9.725,0.240 9.898 C 0.114 10.071,0.007 78.614,0.005 162.215 L 0.000 314.218 195.837 314.213 L 391.673 314.207 390.102 313.343 C 387.994 312.183,376.841 306.677,376.599 306.677 C 376.493 306.677,376.236 306.534,376.028 306.358 C 375.819 306.182,373.244 304.818,370.306 303.327 C 359.995 298.092,352.463 294.136,352.239 293.839 C 352.152 293.724,351.304 293.279,350.353 292.849 C 349.403 292.419,348.484 291.916,348.311 291.731 C 348.138 291.546,347.361 291.123,346.583 290.792 C 345.805 290.460,344.933 289.975,344.644 289.713 C 344.355 289.452,343.401 288.959,342.523 288.619 C 341.645 288.278,340.927 287.891,340.927 287.758 C 340.927 287.625,340.043 287.085,338.963 286.559 C 337.883 286.032,336.151 285.120,335.114 284.532 C 334.077 283.944,332.634 283.168,331.907 282.807 C 331.180 282.446,330.401 281.978,330.176 281.767 C 329.951 281.555,328.920 280.958,327.884 280.440 C 326.849 279.921,325.931 279.418,325.844 279.322 C 325.758 279.225,325.051 278.787,324.273 278.349 C 323.496 277.911,321.189 276.576,319.146 275.383 C 317.104 274.189,314.684 272.789,313.767 272.270 C 312.851 271.752,311.906 271.168,311.667 270.972 C 311.428 270.777,310.526 270.238,309.662 269.774 C 306.446 268.050,305.259 267.334,305.033 266.979 C 304.906 266.778,304.799 266.713,304.797 266.835 C 304.794 266.956,303.735 266.355,302.442 265.499 C 301.150 264.644,300.008 263.943,299.903 263.943 C 299.799 263.943,298.968 263.449,298.057 262.844 C 297.146 262.239,296.238 261.744,296.040 261.744 C 295.842 261.744,295.679 261.603,295.679 261.430 C 295.679 261.257,295.532 261.115,295.352 261.115 C 295.172 261.115,294.854 260.970,294.645 260.792 C 294.296 260.495,291.615 258.783,286.165 255.377 C 283.239 253.548,277.763 250.008,275.030 248.179 C 273.783 247.344,272.617 246.661,272.438 246.661 C 272.259 246.661,272.113 246.516,272.113 246.337 C 272.113 246.159,271.866 245.925,271.563 245.817 C 271.261 245.710,270.140 245.007,269.072 244.256 C 268.004 243.505,267.043 242.891,266.937 242.891 C 266.831 242.891,266.363 242.537,265.897 242.105 C 265.431 241.673,264.921 241.320,264.763 241.320 C 264.494 241.320,263.299 240.486,260.555 238.383 C 259.913 237.891,259.007 237.290,258.542 237.049 C 258.077 236.807,256.451 235.695,254.928 234.577 C 253.406 233.459,251.689 232.222,251.113 231.826 C 250.537 231.431,249.163 230.436,248.061 229.615 C 246.958 228.794,245.980 228.123,245.887 228.123 C 245.795 228.123,245.445 227.875,245.111 227.573 C 244.777 227.270,243.964 226.630,243.305 226.150 C 242.645 225.669,241.090 224.503,239.850 223.557 C 238.610 222.612,237.443 221.838,237.258 221.838 C 237.072 221.838,236.921 221.715,236.921 221.565 C 236.921 221.414,235.683 220.375,234.171 219.255 C 231.004 216.911,227.313 213.967,226.383 213.046 C 226.032 212.697,225.582 212.412,225.385 212.412 C 225.187 212.412,224.766 212.081,224.448 211.677 C 224.130 211.272,223.712 210.884,223.520 210.813 C 223.145 210.674,220.627 208.595,218.512 206.677 C 217.797 206.029,217.112 205.499,216.991 205.499 C 216.869 205.499,216.413 205.075,215.977 204.556 C 215.541 204.038,215.041 203.614,214.866 203.614 C 214.692 203.614,214.159 203.225,213.682 202.749 C 213.205 202.274,211.922 201.108,210.830 200.157 C 201.507 192.042,187.628 178.165,182.247 171.577 C 181.642 170.836,180.758 169.837,180.283 169.357 C 179.808 168.876,179.419 168.392,179.419 168.281 C 179.419 168.170,178.502 166.953,177.382 165.576 C 176.261 164.200,175.095 162.686,174.791 162.213 C 174.486 161.739,173.427 160.268,172.439 158.945 C 171.450 157.622,170.389 156.123,170.081 155.615 C 169.773 155.106,169.249 154.280,168.916 153.779 C 166.927 150.780,165.814 148.819,163.492 144.226 C 162.487 142.239,161.583 140.542,161.483 140.456 C 161.383 140.369,160.897 139.167,160.403 137.785 C 159.909 136.402,159.329 134.988,159.113 134.643 C 158.898 134.297,158.418 132.742,158.046 131.186 C 157.367 128.346,156.778 126.630,156.483 126.630 C 156.395 126.630,156.305 126.312,156.283 125.923 C 156.260 125.534,156.083 123.943,155.889 122.388 C 155.165 116.573,155.066 114.957,155.337 113.354 C 155.423 112.842,155.340 112.490,155.133 112.490 C 154.892 112.490,154.901 112.373,155.161 112.113 C 155.368 111.906,155.538 111.070,155.538 110.255 C 155.538 107.459,156.414 103.695,157.783 100.615 C 158.112 99.873,158.606 98.707,158.879 98.023 C 159.153 97.339,159.488 96.779,159.623 96.779 C 159.758 96.779,159.950 96.458,160.048 96.066 C 160.225 95.361,160.478 94.937,163.660 90.024 C 166.483 85.664,166.913 85.046,168.630 82.892 C 169.552 81.735,170.306 80.709,170.306 80.614 C 170.306 80.518,170.801 79.910,171.405 79.262 C 172.009 78.614,173.624 76.798,174.993 75.227 C 178.196 71.551,185.690 63.998,189.317 60.789 C 190.872 59.413,192.215 58.215,192.302 58.126 C 192.440 57.984,195.385 55.564,196.229 54.898 C 199.778 52.100,203.101 49.647,203.342 49.647 C 203.512 49.647,203.563 49.505,203.456 49.332 C 203.350 49.159,203.420 49.018,203.612 49.018 C 203.997 49.018,207.104 46.958,208.289 45.917 C 208.700 45.556,209.159 45.337,209.310 45.430 C 209.461 45.523,209.584 45.463,209.584 45.296 C 209.584 45.019,210.649 44.322,214.491 42.084 C 215.253 41.640,215.781 41.180,215.663 41.062 C 215.545 40.945,215.673 40.848,215.947 40.848 C 216.220 40.848,216.491 40.742,216.549 40.613 C 216.606 40.483,217.290 40.057,218.068 39.665 C 220.037 38.674,221.941 37.584,222.991 36.846 C 223.480 36.502,224.583 35.913,225.441 35.537 C 226.299 35.161,227.076 34.753,227.169 34.630 C 227.261 34.507,227.973 34.089,228.751 33.702 C 229.529 33.314,230.377 32.864,230.636 32.702 C 231.758 32.003,237.744 29.220,238.125 29.221 C 238.356 29.222,238.493 29.070,238.432 28.885 C 238.370 28.699,238.231 28.593,238.124 28.649 C 238.017 28.705,237.651 28.499,237.311 28.191 C 236.971 27.884,236.426 27.568,236.100 27.489 C 233.878 26.955,233.358 26.768,233.936 26.709 C 234.467 26.656,234.442 26.611,233.778 26.421 C 233.346 26.298,232.946 26.311,232.889 26.450 C 232.832 26.589,232.580 26.498,232.330 26.248 C 232.080 25.997,231.667 25.872,231.413 25.970 C 231.159 26.068,230.951 26.009,230.951 25.839 C 230.951 25.669,230.517 25.444,229.987 25.338 C 229.457 25.232,229.099 25.022,229.192 24.872 C 229.285 24.722,229.011 24.667,228.584 24.748 C 228.115 24.838,227.808 24.750,227.808 24.527 C 227.808 24.324,227.658 24.251,227.473 24.365 C 227.289 24.479,226.925 24.310,226.664 23.991 C 226.404 23.671,226.295 23.610,226.423 23.856 C 226.597 24.191,226.466 24.171,225.905 23.778 C 225.085 23.203,224.201 23.067,224.507 23.563 C 224.617 23.741,224.491 23.794,224.211 23.686 C 223.943 23.583,223.723 23.373,223.723 23.219 C 223.723 23.064,223.511 22.938,223.252 22.938 C 222.993 22.938,222.781 22.812,222.781 22.657 C 222.781 22.503,222.561 22.293,222.293 22.190 C 221.995 22.075,221.886 22.132,222.012 22.336 C 222.155 22.568,222.040 22.574,221.635 22.356 C 221.147 22.092,220.335 21.755,219.639 21.527 C 219.552 21.498,218.953 21.365,218.306 21.229 C 217.659 21.094,217.207 20.859,217.301 20.708 C 217.395 20.556,217.251 20.516,216.980 20.620 C 216.710 20.724,216.278 20.634,216.021 20.421 C 215.646 20.110,215.553 20.118,215.549 20.464 C 215.545 20.789,215.484 20.801,215.301 20.512 C 215.005 20.047,213.042 19.329,211.228 19.023 C 210.406 18.884,209.974 18.669,210.102 18.462 C 210.222 18.269,210.161 18.219,209.959 18.344 C 209.767 18.463,209.356 18.415,209.047 18.238 C 207.937 17.602,204.424 16.988,204.171 17.385 C 204.014 17.634,203.936 17.587,203.933 17.243 C 203.928 16.794,202.404 16.163,201.650 16.297 C 201.520 16.320,201.414 16.174,201.414 15.973 C 201.414 15.771,201.325 15.695,201.217 15.803 C 201.109 15.912,200.551 15.804,199.978 15.565 C 199.406 15.326,198.893 15.259,198.840 15.416 C 198.787 15.574,198.337 15.492,197.840 15.234 C 197.343 14.976,196.235 14.734,195.378 14.697 C 194.520 14.660,193.972 14.578,194.160 14.515 C 194.348 14.453,194.501 14.276,194.501 14.124 C 194.501 13.971,194.300 13.922,194.054 14.017 C 193.809 14.111,193.299 14.023,192.922 13.821 C 192.544 13.619,191.720 13.392,191.090 13.315 C 189.688 13.145,189.142 13.029,188.531 12.771 C 188.133 12.603,186.745 12.370,185.546 12.271 C 185.373 12.257,185.444 12.108,185.703 11.940 C 186.095 11.687,186.069 11.631,185.546 11.609 C 185.200 11.595,184.493 11.522,183.975 11.447 C 183.456 11.373,182.516 11.276,181.886 11.233 C 181.255 11.190,180.794 11.065,180.861 10.954 C 181.041 10.659,178.226 10.292,177.800 10.556 C 177.574 10.695,177.521 10.643,177.660 10.418 C 177.784 10.218,177.700 10.033,177.473 10.007 C 177.247 9.981,176.921 9.942,176.748 9.920 C 176.575 9.899,176.257 9.771,176.042 9.636 C 175.826 9.501,174.872 9.363,173.921 9.330 C 172.971 9.297,172.193 9.147,172.192 8.997 C 172.192 8.847,171.909 8.799,171.563 8.889 C 171.218 8.980,170.935 8.925,170.935 8.769 C 170.935 8.612,170.448 8.484,169.854 8.484 C 169.259 8.484,168.680 8.334,168.567 8.151 C 168.435 7.939,168.218 8.013,167.968 8.354 C 167.607 8.849,167.562 8.838,167.400 8.216 C 167.302 7.845,167.060 7.541,166.861 7.541 C 166.662 7.541,166.573 7.662,166.665 7.810 C 166.756 7.958,166.483 8.012,166.059 7.931 C 165.634 7.850,165.364 7.658,165.458 7.505 C 165.553 7.352,165.092 7.201,164.433 7.169 C 163.775 7.137,162.950 7.094,162.600 7.074 C 162.250 7.054,161.769 6.917,161.530 6.769 C 161.210 6.572,161.167 6.617,161.363 6.943 C 161.589 7.318,161.549 7.320,161.101 6.956 C 160.787 6.701,160.258 6.608,159.792 6.724 C 159.140 6.888,159.045 6.830,159.219 6.367 C 159.393 5.902,159.349 5.876,158.946 6.203 C 158.682 6.418,158.385 6.513,158.286 6.414 C 158.188 6.316,157.706 6.175,157.215 6.101 C 156.725 6.028,155.899 5.893,155.381 5.803 C 154.863 5.712,153.802 5.609,153.024 5.573 C 152.247 5.538,151.529 5.397,151.430 5.260 C 151.206 4.952,149.789 4.742,146.770 4.569 C 145.490 4.496,144.355 4.294,144.248 4.120 C 144.137 3.941,143.870 3.916,143.633 4.063 C 143.185 4.340,142.027 4.151,142.027 3.801 C 142.027 3.686,141.567 3.569,141.005 3.542 C 140.444 3.515,139.525 3.416,138.963 3.323 C 138.274 3.209,137.940 3.280,137.937 3.541 C 137.934 3.809,137.847 3.793,137.655 3.489 C 137.497 3.241,137.152 3.137,136.857 3.250 C 136.547 3.369,136.417 3.322,136.534 3.132 C 136.650 2.945,136.366 2.827,135.844 2.844 C 135.356 2.860,134.674 2.810,134.328 2.734 C 133.983 2.657,133.550 2.713,133.367 2.857 C 133.081 3.083,131.858 2.869,130.086 2.283 C 129.518 2.094,126.253 1.839,123.596 1.775 C 122.533 1.749,121.728 1.622,121.808 1.493 C 121.888 1.363,121.812 1.257,121.640 1.257 C 121.467 1.257,121.234 1.405,121.122 1.586 C 120.983 1.811,120.775 1.797,120.467 1.542 C 120.219 1.336,119.927 1.257,119.817 1.366 C 119.708 1.476,119.405 1.390,119.145 1.176 C 118.768 0.865,118.645 0.866,118.540 1.180 C 118.466 1.397,118.242 1.472,118.041 1.347 C 117.839 1.221,117.251 1.094,116.732 1.064 C 116.214 1.033,114.906 0.929,113.826 0.831 C 112.401 0.702,111.860 0.758,111.857 1.034 C 111.854 1.296,111.781 1.308,111.621 1.072 C 111.494 0.884,110.545 0.699,109.512 0.661 C 108.479 0.622,107.573 0.529,107.499 0.455 C 107.424 0.381,107.174 0.477,106.942 0.670 C 106.630 0.928,106.400 0.920,106.060 0.637 C 105.740 0.372,104.540 0.289,102.132 0.367 C 100.225 0.429,98.665 0.387,98.665 0.275 C 98.665 0.020,95.276 0.176,94.423 0.471 C 93.916 0.646,93.886 0.622,94.266 0.349 C 94.647 0.074,94.568 0.009,93.854 0.005 C 93.231 0.001,93.041 0.115,93.208 0.393 C 93.390 0.696,93.330 0.694,92.948 0.384 C 92.276 -0.160,80.198 -0.132,79.521 0.415 C 79.163 0.704,79.114 0.699,79.298 0.393 C 79.583 -0.080,77.718 -0.157,76.999 0.298 C 76.748 0.457,76.397 0.497,76.218 0.387 C 75.708 0.072,74.676 0.054,74.102 0.352 C 73.777 0.520,73.536 0.497,73.467 0.292 C 73.407 0.110,73.265 0.052,73.154 0.164 M40.534 157.738 C 40.534 157.910,40.322 158.052,40.063 158.052 C 39.804 158.052,39.592 157.910,39.592 157.738 C 39.592 157.565,39.804 157.423,40.063 157.423 C 40.322 157.423,40.534 157.565,40.534 157.738 M38.083 158.115 C 37.790 158.408,37.622 158.408,37.329 158.115 C 37.036 157.821,37.120 157.738,37.706 157.738 C 38.293 157.738,38.377 157.821,38.083 158.115 M25.545 159.970 C 25.296 160.218,25.034 160.221,24.618 159.979 C 24.109 159.684,24.152 159.641,24.965 159.632 C 25.641 159.626,25.798 159.717,25.545 159.970 M17.439 160.880 C 17.546 161.053,17.334 161.194,16.968 161.194 C 16.602 161.194,16.390 161.053,16.496 160.880 C 16.603 160.707,16.815 160.566,16.968 160.566 C 17.120 160.566,17.332 160.707,17.439 160.880 M14.517 161.571 C 14.224 161.864,14.056 161.864,13.763 161.571 C 13.469 161.278,13.553 161.194,14.140 161.194 C 14.726 161.194,14.810 161.278,14.517 161.571 M11.940 161.822 C 11.940 161.995,11.728 162.137,11.469 162.137 C 11.210 162.137,10.998 161.995,10.998 161.822 C 10.998 161.650,11.210 161.508,11.469 161.508 C 11.728 161.508,11.940 161.650,11.940 161.822 M8.861 162.200 C 8.568 162.493,8.400 162.493,8.107 162.200 C 7.814 161.906,7.897 161.822,8.484 161.822 C 9.070 161.822,9.154 161.906,8.861 162.200 M5.970 162.451 C 5.970 162.624,5.758 162.765,5.499 162.765 C 5.240 162.765,5.027 162.624,5.027 162.451 C 5.027 162.278,5.240 162.137,5.499 162.137 C 5.758 162.137,5.970 162.278,5.970 162.451 M3.142 162.765 C 3.142 162.938,2.851 163.079,2.495 163.079 C 2.139 163.079,1.936 162.938,2.042 162.765 C 2.149 162.592,2.440 162.451,2.689 162.451 C 2.938 162.451,3.142 162.592,3.142 162.765 " stroke="none" fill="#5ce080" fill-rule="evenodd"></path><path id="path7" d="M73.154 0.164 C 73.042 0.276,71.452 0.365,69.620 0.363 C 67.143 0.359,66.347 0.453,66.512 0.729 C 66.668 0.988,66.590 0.983,66.253 0.710 C 65.988 0.495,65.700 0.391,65.612 0.478 C 65.525 0.565,64.407 0.661,63.128 0.690 C 61.848 0.720,60.625 0.876,60.408 1.039 C 60.160 1.225,60.016 1.220,60.016 1.024 C 60.016 0.854,59.698 0.748,59.309 0.788 C 58.920 0.829,58.063 0.880,57.405 0.903 C 56.747 0.925,56.278 1.056,56.363 1.194 C 56.449 1.332,56.174 1.445,55.753 1.445 C 55.333 1.445,54.986 1.297,54.983 1.115 C 54.980 0.899,54.899 0.894,54.748 1.100 C 54.621 1.273,53.881 1.421,53.103 1.430 C 51.281 1.451,48.622 1.873,48.282 2.195 C 48.136 2.333,47.647 2.254,47.194 2.019 C 46.608 1.715,46.309 1.692,46.157 1.939 C 46.039 2.130,45.574 2.215,45.124 2.129 C 44.673 2.043,44.305 2.090,44.305 2.233 C 44.305 2.377,44.069 2.404,43.782 2.293 C 43.494 2.183,43.340 2.223,43.438 2.382 C 43.541 2.547,42.824 2.649,41.762 2.620 C 40.741 2.593,39.906 2.664,39.906 2.779 C 39.906 2.894,38.889 3.024,37.645 3.067 C 36.261 3.115,35.289 3.297,35.136 3.536 C 34.968 3.802,34.886 3.812,34.883 3.568 C 34.880 3.317,34.534 3.286,33.740 3.465 C 33.115 3.606,32.383 3.637,32.115 3.534 C 31.738 3.390,31.680 3.485,31.857 3.952 C 32.022 4.385,31.991 4.460,31.747 4.219 C 31.401 3.876,29.537 3.991,29.537 4.356 C 29.537 4.466,29.006 4.573,28.358 4.594 C 26.003 4.671,22.792 5.069,22.631 5.304 C 22.541 5.437,21.875 5.528,21.152 5.506 C 20.083 5.473,19.806 5.583,19.673 6.093 C 19.510 6.715,19.502 6.715,18.813 6.110 C 18.430 5.774,18.215 5.667,18.335 5.873 C 18.470 6.105,18.342 6.238,17.996 6.224 C 17.690 6.212,17.086 6.290,16.654 6.397 C 16.222 6.504,15.444 6.683,14.925 6.795 C 14.407 6.906,13.819 7.126,13.618 7.284 C 13.395 7.460,13.179 7.453,13.064 7.265 C 12.945 7.072,12.506 7.065,11.878 7.245 C 11.330 7.402,10.820 7.468,10.743 7.391 C 10.666 7.315,10.184 7.469,9.672 7.734 C 9.159 7.999,8.659 8.135,8.559 8.036 C 8.460 7.937,8.568 7.855,8.798 7.855 C 9.029 7.855,9.141 7.779,9.048 7.687 C 8.839 7.477,7.227 8.189,7.227 8.491 C 7.227 8.612,6.873 8.643,6.440 8.560 C 6.007 8.478,5.414 8.603,5.122 8.840 C 4.686 9.193,4.638 9.194,4.848 8.845 C 5.055 8.501,4.977 8.489,4.430 8.781 C 4.060 8.979,3.613 9.052,3.436 8.943 C 3.259 8.833,2.942 8.887,2.732 9.062 C 2.521 9.236,1.927 9.425,1.410 9.481 C 0.894 9.538,0.367 9.725,0.240 9.898 C 0.114 10.071,0.007 78.614,0.005 162.215 L 0.000 314.218 195.837 314.213 L 391.673 314.207 390.102 313.343 C 387.994 312.183,376.841 306.677,376.599 306.677 C 376.493 306.677,376.236 306.534,376.028 306.358 C 375.819 306.182,373.244 304.818,370.306 303.327 C 359.995 298.092,352.463 294.136,352.239 293.839 C 352.152 293.724,351.304 293.279,350.353 292.849 C 349.403 292.419,348.484 291.916,348.311 291.731 C 348.138 291.546,347.361 291.123,346.583 290.792 C 345.805 290.460,344.933 289.975,344.644 289.713 C 344.355 289.452,343.401 288.959,342.523 288.619 C 341.645 288.278,340.927 287.891,340.927 287.758 C 340.927 287.625,340.043 287.085,338.963 286.559 C 337.883 286.032,336.151 285.120,335.114 284.532 C 334.077 283.944,332.634 283.168,331.907 282.807 C 331.180 282.446,330.401 281.978,330.176 281.767 C 329.951 281.555,328.920 280.958,327.884 280.440 C 326.849 279.921,325.931 279.418,325.844 279.322 C 325.758 279.225,325.051 278.787,324.273 278.349 C 323.496 277.911,321.189 276.576,319.146 275.383 C 317.104 274.189,314.684 272.789,313.767 272.270 C 312.851 271.752,311.906 271.168,311.667 270.972 C 311.428 270.777,310.526 270.238,309.662 269.774 C 306.446 268.050,305.259 267.334,305.033 266.979 C 304.906 266.778,304.799 266.713,304.797 266.835 C 304.794 266.956,303.735 266.355,302.442 265.499 C 301.150 264.644,300.008 263.943,299.903 263.943 C 299.799 263.943,298.968 263.449,298.057 262.844 C 297.146 262.239,296.238 261.744,296.040 261.744 C 295.842 261.744,295.679 261.603,295.679 261.430 C 295.679 261.257,295.532 261.115,295.352 261.115 C 295.172 261.115,294.854 260.970,294.645 260.792 C 294.296 260.495,291.615 258.783,286.165 255.377 C 283.239 253.548,277.763 250.008,275.030 248.179 C 273.783 247.344,272.617 246.661,272.438 246.661 C 272.259 246.661,272.113 246.516,272.113 246.337 C 272.113 246.159,271.866 245.925,271.563 245.817 C 271.261 245.710,270.140 245.007,269.072 244.256 C 268.004 243.505,267.043 242.891,266.937 242.891 C 266.831 242.891,266.363 242.537,265.897 242.105 C 265.431 241.673,264.921 241.320,264.763 241.320 C 264.494 241.320,263.299 240.486,260.555 238.383 C 259.913 237.891,259.007 237.290,258.542 237.049 C 258.077 236.807,256.451 235.695,254.928 234.577 C 253.406 233.459,251.689 232.222,251.113 231.826 C 250.537 231.431,249.163 230.436,248.061 229.615 C 246.958 228.794,245.980 228.123,245.887 228.123 C 245.795 228.123,245.445 227.875,245.111 227.573 C 244.777 227.270,243.964 226.630,243.305 226.150 C 242.645 225.669,241.090 224.503,239.850 223.557 C 238.610 222.612,237.443 221.838,237.258 221.838 C 237.072 221.838,236.921 221.715,236.921 221.565 C 236.921 221.414,235.683 220.375,234.171 219.255 C 231.004 216.911,227.313 213.967,226.383 213.046 C 226.032 212.697,225.582 212.412,225.385 212.412 C 225.187 212.412,224.766 212.081,224.448 211.677 C 224.130 211.272,223.712 210.884,223.520 210.813 C 223.145 210.674,220.627 208.595,218.512 206.677 C 217.797 206.029,217.112 205.499,216.991 205.499 C 216.869 205.499,216.413 205.075,215.977 204.556 C 215.541 204.038,215.041 203.614,214.866 203.614 C 214.692 203.614,214.159 203.225,213.682 202.749 C 213.205 202.274,211.922 201.108,210.830 200.157 C 201.507 192.042,187.628 178.165,182.247 171.577 C 181.642 170.836,180.758 169.837,180.283 169.357 C 179.808 168.876,179.419 168.392,179.419 168.281 C 179.419 168.170,178.502 166.953,177.382 165.576 C 176.261 164.200,175.095 162.686,174.791 162.213 C 174.486 161.739,173.427 160.268,172.439 158.945 C 171.450 157.622,170.389 156.123,170.081 155.615 C 169.773 155.106,169.249 154.280,168.916 153.779 C 166.927 150.780,165.814 148.819,163.492 144.226 C 162.487 142.239,161.583 140.542,161.483 140.456 C 161.383 140.369,160.897 139.167,160.403 137.785 C 159.909 136.402,159.329 134.988,159.113 134.643 C 158.898 134.297,158.418 132.742,158.046 131.186 C 157.367 128.346,156.778 126.630,156.483 126.630 C 156.395 126.630,156.305 126.312,156.283 125.923 C 156.260 125.534,156.083 123.943,155.889 122.388 C 155.165 116.573,155.066 114.957,155.337 113.354 C 155.423 112.842,155.340 112.490,155.133 112.490 C 154.892 112.490,154.901 112.373,155.161 112.113 C 155.368 111.906,155.538 111.070,155.538 110.255 C 155.538 107.459,156.414 103.695,157.783 100.615 C 158.112 99.873,158.606 98.707,158.879 98.023 C 159.153 97.339,159.488 96.779,159.623 96.779 C 159.758 96.779,159.950 96.458,160.048 96.066 C 160.225 95.361,160.478 94.937,163.660 90.024 C 166.483 85.664,166.913 85.046,168.630 82.892 C 169.552 81.735,170.306 80.709,170.306 80.614 C 170.306 80.518,170.801 79.910,171.405 79.262 C 172.009 78.614,173.624 76.798,174.993 75.227 C 178.196 71.551,185.690 63.998,189.317 60.789 C 190.872 59.413,192.215 58.215,192.302 58.126 C 192.440 57.984,195.385 55.564,196.229 54.898 C 199.778 52.100,203.101 49.647,203.342 49.647 C 203.512 49.647,203.563 49.505,203.456 49.332 C 203.350 49.159,203.420 49.018,203.612 49.018 C 203.997 49.018,207.104 46.958,208.289 45.917 C 208.700 45.556,209.159 45.337,209.310 45.430 C 209.461 45.523,209.584 45.463,209.584 45.296 C 209.584 45.019,210.649 44.322,214.491 42.084 C 215.253 41.640,215.781 41.180,215.663 41.062 C 215.545 40.945,215.673 40.848,215.947 40.848 C 216.220 40.848,216.491 40.742,216.549 40.613 C 216.606 40.483,217.290 40.057,218.068 39.665 C 220.037 38.674,221.941 37.584,222.991 36.846 C 223.480 36.502,224.583 35.913,225.441 35.537 C 226.299 35.161,227.076 34.753,227.169 34.630 C 227.261 34.507,227.973 34.089,228.751 33.702 C 229.529 33.314,230.377 32.864,230.636 32.702 C 231.758 32.003,237.744 29.220,238.125 29.221 C 238.356 29.222,238.493 29.070,238.432 28.885 C 238.370 28.699,238.231 28.593,238.124 28.649 C 238.017 28.705,237.651 28.499,237.311 28.191 C 236.971 27.884,236.426 27.568,236.100 27.489 C 233.878 26.955,233.358 26.768,233.936 26.709 C 234.467 26.656,234.442 26.611,233.778 26.421 C 233.346 26.298,232.946 26.311,232.889 26.450 C 232.832 26.589,232.580 26.498,232.330 26.248 C 232.080 25.997,231.667 25.872,231.413 25.970 C 231.159 26.068,230.951 26.009,230.951 25.839 C 230.951 25.669,230.517 25.444,229.987 25.338 C 229.457 25.232,229.099 25.022,229.192 24.872 C 229.285 24.722,229.011 24.667,228.584 24.748 C 228.115 24.838,227.808 24.750,227.808 24.527 C 227.808 24.324,227.658 24.251,227.473 24.365 C 227.289 24.479,226.925 24.310,226.664 23.991 C 226.404 23.671,226.295 23.610,226.423 23.856 C 226.597 24.191,226.466 24.171,225.905 23.778 C 225.085 23.203,224.201 23.067,224.507 23.563 C 224.617 23.741,224.491 23.794,224.211 23.686 C 223.943 23.583,223.723 23.373,223.723 23.219 C 223.723 23.064,223.511 22.938,223.252 22.938 C 222.993 22.938,222.781 22.812,222.781 22.657 C 222.781 22.503,222.561 22.293,222.293 22.190 C 221.995 22.075,221.886 22.132,222.012 22.336 C 222.155 22.568,222.040 22.574,221.635 22.356 C 221.147 22.092,220.335 21.755,219.639 21.527 C 219.552 21.498,218.953 21.365,218.306 21.229 C 217.659 21.094,217.207 20.859,217.301 20.708 C 217.395 20.556,217.251 20.516,216.980 20.620 C 216.710 20.724,216.278 20.634,216.021 20.421 C 215.646 20.110,215.553 20.118,215.549 20.464 C 215.545 20.789,215.484 20.801,215.301 20.512 C 215.005 20.047,213.042 19.329,211.228 19.023 C 210.406 18.884,209.974 18.669,210.102 18.462 C 210.222 18.269,210.161 18.219,209.959 18.344 C 209.767 18.463,209.356 18.415,209.047 18.238 C 207.937 17.602,204.424 16.988,204.171 17.385 C 204.014 17.634,203.936 17.587,203.933 17.243 C 203.928 16.794,202.404 16.163,201.650 16.297 C 201.520 16.320,201.414 16.174,201.414 15.973 C 201.414 15.771,201.325 15.695,201.217 15.803 C 201.109 15.912,200.551 15.804,199.978 15.565 C 199.406 15.326,198.893 15.259,198.840 15.416 C 198.787 15.574,198.337 15.492,197.840 15.234 C 197.343 14.976,196.235 14.734,195.378 14.697 C 194.520 14.660,193.972 14.578,194.160 14.515 C 194.348 14.453,194.501 14.276,194.501 14.124 C 194.501 13.971,194.300 13.922,194.054 14.017 C 193.809 14.111,193.299 14.023,192.922 13.821 C 192.544 13.619,191.720 13.392,191.090 13.315 C 189.688 13.145,189.142 13.029,188.531 12.771 C 188.133 12.603,186.745 12.370,185.546 12.271 C 185.373 12.257,185.444 12.108,185.703 11.940 C 186.095 11.687,186.069 11.631,185.546 11.609 C 185.200 11.595,184.493 11.522,183.975 11.447 C 183.456 11.373,182.516 11.276,181.886 11.233 C 181.255 11.190,180.794 11.065,180.861 10.954 C 181.041 10.659,178.226 10.292,177.800 10.556 C 177.574 10.695,177.521 10.643,177.660 10.418 C 177.784 10.218,177.700 10.033,177.473 10.007 C 177.247 9.981,176.921 9.942,176.748 9.920 C 176.575 9.899,176.257 9.771,176.042 9.636 C 175.826 9.501,174.872 9.363,173.921 9.330 C 172.971 9.297,172.193 9.147,172.192 8.997 C 172.192 8.847,171.909 8.799,171.563 8.889 C 171.218 8.980,170.935 8.925,170.935 8.769 C 170.935 8.612,170.448 8.484,169.854 8.484 C 169.259 8.484,168.680 8.334,168.567 8.151 C 168.435 7.939,168.218 8.013,167.968 8.354 C 167.607 8.849,167.562 8.838,167.400 8.216 C 167.302 7.845,167.060 7.541,166.861 7.541 C 166.662 7.541,166.573 7.662,166.665 7.810 C 166.756 7.958,166.483 8.012,166.059 7.931 C 165.634 7.850,165.364 7.658,165.458 7.505 C 165.553 7.352,165.092 7.201,164.433 7.169 C 163.775 7.137,162.950 7.094,162.600 7.074 C 162.250 7.054,161.769 6.917,161.530 6.769 C 161.210 6.572,161.167 6.617,161.363 6.943 C 161.589 7.318,161.549 7.320,161.101 6.956 C 160.787 6.701,160.258 6.608,159.792 6.724 C 159.140 6.888,159.045 6.830,159.219 6.367 C 159.393 5.902,159.349 5.876,158.946 6.203 C 158.682 6.418,158.385 6.513,158.286 6.414 C 158.188 6.316,157.706 6.175,157.215 6.101 C 156.725 6.028,155.899 5.893,155.381 5.803 C 154.863 5.712,153.802 5.609,153.024 5.573 C 152.247 5.538,151.529 5.397,151.430 5.260 C 151.206 4.952,149.789 4.742,146.770 4.569 C 145.490 4.496,144.355 4.294,144.248 4.120 C 144.137 3.941,143.870 3.916,143.633 4.063 C 143.185 4.340,142.027 4.151,142.027 3.801 C 142.027 3.686,141.567 3.569,141.005 3.542 C 140.444 3.515,139.525 3.416,138.963 3.323 C 138.274 3.209,137.940 3.280,137.937 3.541 C 137.934 3.809,137.847 3.793,137.655 3.489 C 137.497 3.241,137.152 3.137,136.857 3.250 C 136.547 3.369,136.417 3.322,136.534 3.132 C 136.650 2.945,136.366 2.827,135.844 2.844 C 135.356 2.860,134.674 2.810,134.328 2.734 C 133.983 2.657,133.550 2.713,133.367 2.857 C 133.081 3.083,131.858 2.869,130.086 2.283 C 129.518 2.094,126.253 1.839,123.596 1.775 C 122.533 1.749,121.728 1.622,121.808 1.493 C 121.888 1.363,121.812 1.257,121.640 1.257 C 121.467 1.257,121.234 1.405,121.122 1.586 C 120.983 1.811,120.775 1.797,120.467 1.542 C 120.219 1.336,119.927 1.257,119.817 1.366 C 119.708 1.476,119.405 1.390,119.145 1.176 C 118.768 0.865,118.645 0.866,118.540 1.180 C 118.466 1.397,118.242 1.472,118.041 1.347 C 117.839 1.221,117.251 1.094,116.732 1.064 C 116.214 1.033,114.906 0.929,113.826 0.831 C 112.401 0.702,111.860 0.758,111.857 1.034 C 111.854 1.296,111.781 1.308,111.621 1.072 C 111.494 0.884,110.545 0.699,109.512 0.661 C 108.479 0.622,107.573 0.529,107.499 0.455 C 107.424 0.381,107.174 0.477,106.942 0.670 C 106.630 0.928,106.400 0.920,106.060 0.637 C 105.740 0.372,104.540 0.289,102.132 0.367 C 100.225 0.429,98.665 0.387,98.665 0.275 C 98.665 0.020,95.276 0.176,94.423 0.471 C 93.916 0.646,93.886 0.622,94.266 0.349 C 94.647 0.074,94.568 0.009,93.854 0.005 C 93.231 0.001,93.041 0.115,93.208 0.393 C 93.390 0.696,93.330 0.694,92.948 0.384 C 92.276 -0.160,80.198 -0.132,79.521 0.415 C 79.163 0.704,79.114 0.699,79.298 0.393 C 79.583 -0.080,77.718 -0.157,76.999 0.298 C 76.748 0.457,76.397 0.497,76.218 0.387 C 75.708 0.072,74.676 0.054,74.102 0.352 C 73.777 0.520,73.536 0.497,73.467 0.292 C 73.407 0.110,73.265 0.052,73.154 0.164 M40.534 157.738 C 40.534 157.910,40.322 158.052,40.063 158.052 C 39.804 158.052,39.592 157.910,39.592 157.738 C 39.592 157.565,39.804 157.423,40.063 157.423 C 40.322 157.423,40.534 157.565,40.534 157.738 M38.083 158.115 C 37.790 158.408,37.622 158.408,37.329 158.115 C 37.036 157.821,37.120 157.738,37.706 157.738 C 38.293 157.738,38.377 157.821,38.083 158.115 M25.545 159.970 C 25.296 160.218,25.034 160.221,24.618 159.979 C 24.109 159.684,24.152 159.641,24.965 159.632 C 25.641 159.626,25.798 159.717,25.545 159.970 M17.439 160.880 C 17.546 161.053,17.334 161.194,16.968 161.194 C 16.602 161.194,16.390 161.053,16.496 160.880 C 16.603 160.707,16.815 160.566,16.968 160.566 C 17.120 160.566,17.332 160.707,17.439 160.880 M14.517 161.571 C 14.224 161.864,14.056 161.864,13.763 161.571 C 13.469 161.278,13.553 161.194,14.140 161.194 C 14.726 161.194,14.810 161.278,14.517 161.571 M11.940 161.822 C 11.940 161.995,11.728 162.137,11.469 162.137 C 11.210 162.137,10.998 161.995,10.998 161.822 C 10.998 161.650,11.210 161.508,11.469 161.508 C 11.728 161.508,11.940 161.650,11.940 161.822 M8.861 162.200 C 8.568 162.493,8.400 162.493,8.107 162.200 C 7.814 161.906,7.897 161.822,8.484 161.822 C 9.070 161.822,9.154 161.906,8.861 162.200 M5.970 162.451 C 5.970 162.624,5.758 162.765,5.499 162.765 C 5.240 162.765,5.027 162.624,5.027 162.451 C 5.027 162.278,5.240 162.137,5.499 162.137 C 5.758 162.137,5.970 162.278,5.970 162.451 M3.142 162.765 C 3.142 162.938,2.851 163.079,2.495 163.079 C 2.139 163.079,1.936 162.938,2.042 162.765 C 2.149 162.592,2.440 162.451,2.689 162.451 C 2.938 162.451,3.142 162.592,3.142 162.765 " stroke="none" fill="#5ce080" fill-rule="evenodd"></path></g></svg>